<mxfile host="app.diagrams.net" modified="2024-07-18T21:02:09.237Z" agent="Mozilla/5.0 (Macintosh; Intel Mac OS X 10_15_7) AppleWebKit/605.1.15 (KHTML, like Gecko) Version/17.5 Safari/605.1.15" etag="2N_i_GK30gqEekWYxgtd" version="24.7.1" type="github">
  <diagram name="Page-1" id="SRUjXKTnWhG3TP6HxA9L">
    <mxGraphModel dx="2255" dy="827" grid="1" gridSize="10" guides="1" tooltips="1" connect="1" arrows="1" fold="1" page="1" pageScale="1" pageWidth="827" pageHeight="1169" math="0" shadow="0">
      <root>
        <mxCell id="0" />
        <mxCell id="1" parent="0" />
        <mxCell id="LEEeaACFnw4oo15WlWu0-3" style="edgeStyle=orthogonalEdgeStyle;rounded=0;orthogonalLoop=1;jettySize=auto;html=1;exitX=0.5;exitY=1;exitDx=0;exitDy=0;entryX=0.5;entryY=0;entryDx=0;entryDy=0;" edge="1" parent="1" source="LEEeaACFnw4oo15WlWu0-1" target="LEEeaACFnw4oo15WlWu0-2">
          <mxGeometry relative="1" as="geometry" />
        </mxCell>
        <mxCell id="LEEeaACFnw4oo15WlWu0-7" style="edgeStyle=orthogonalEdgeStyle;rounded=0;orthogonalLoop=1;jettySize=auto;html=1;exitX=0.5;exitY=1;exitDx=0;exitDy=0;" edge="1" parent="1" source="LEEeaACFnw4oo15WlWu0-1" target="LEEeaACFnw4oo15WlWu0-4">
          <mxGeometry relative="1" as="geometry" />
        </mxCell>
        <mxCell id="LEEeaACFnw4oo15WlWu0-8" style="edgeStyle=orthogonalEdgeStyle;rounded=0;orthogonalLoop=1;jettySize=auto;html=1;exitX=0.5;exitY=1;exitDx=0;exitDy=0;" edge="1" parent="1" source="LEEeaACFnw4oo15WlWu0-1" target="LEEeaACFnw4oo15WlWu0-5">
          <mxGeometry relative="1" as="geometry" />
        </mxCell>
        <mxCell id="LEEeaACFnw4oo15WlWu0-9" style="edgeStyle=orthogonalEdgeStyle;rounded=0;orthogonalLoop=1;jettySize=auto;html=1;exitX=0.5;exitY=1;exitDx=0;exitDy=0;" edge="1" parent="1" source="LEEeaACFnw4oo15WlWu0-1" target="LEEeaACFnw4oo15WlWu0-6">
          <mxGeometry relative="1" as="geometry" />
        </mxCell>
        <mxCell id="LEEeaACFnw4oo15WlWu0-1" value="Регистры" style="rounded=0;whiteSpace=wrap;html=1;" vertex="1" parent="1">
          <mxGeometry x="360" y="40" width="120" height="60" as="geometry" />
        </mxCell>
        <mxCell id="LEEeaACFnw4oo15WlWu0-12" style="edgeStyle=orthogonalEdgeStyle;rounded=0;orthogonalLoop=1;jettySize=auto;html=1;exitX=0;exitY=0.5;exitDx=0;exitDy=0;entryX=0;entryY=0.5;entryDx=0;entryDy=0;" edge="1" parent="1" source="LEEeaACFnw4oo15WlWu0-2" target="LEEeaACFnw4oo15WlWu0-11">
          <mxGeometry relative="1" as="geometry" />
        </mxCell>
        <mxCell id="LEEeaACFnw4oo15WlWu0-15" style="edgeStyle=orthogonalEdgeStyle;rounded=0;orthogonalLoop=1;jettySize=auto;html=1;exitX=0;exitY=0.5;exitDx=0;exitDy=0;entryX=0;entryY=0.5;entryDx=0;entryDy=0;" edge="1" parent="1" source="LEEeaACFnw4oo15WlWu0-2" target="LEEeaACFnw4oo15WlWu0-13">
          <mxGeometry relative="1" as="geometry" />
        </mxCell>
        <mxCell id="LEEeaACFnw4oo15WlWu0-18" style="edgeStyle=orthogonalEdgeStyle;rounded=0;orthogonalLoop=1;jettySize=auto;html=1;exitX=0;exitY=0.5;exitDx=0;exitDy=0;entryX=0;entryY=0.5;entryDx=0;entryDy=0;" edge="1" parent="1" source="LEEeaACFnw4oo15WlWu0-2" target="LEEeaACFnw4oo15WlWu0-16">
          <mxGeometry relative="1" as="geometry" />
        </mxCell>
        <mxCell id="LEEeaACFnw4oo15WlWu0-20" style="edgeStyle=orthogonalEdgeStyle;rounded=0;orthogonalLoop=1;jettySize=auto;html=1;exitX=0;exitY=0.5;exitDx=0;exitDy=0;entryX=0;entryY=0.5;entryDx=0;entryDy=0;" edge="1" parent="1" source="LEEeaACFnw4oo15WlWu0-2" target="LEEeaACFnw4oo15WlWu0-19">
          <mxGeometry relative="1" as="geometry" />
        </mxCell>
        <mxCell id="LEEeaACFnw4oo15WlWu0-22" style="edgeStyle=orthogonalEdgeStyle;rounded=0;orthogonalLoop=1;jettySize=auto;html=1;exitX=0;exitY=0.5;exitDx=0;exitDy=0;entryX=0;entryY=0.5;entryDx=0;entryDy=0;" edge="1" parent="1" source="LEEeaACFnw4oo15WlWu0-2" target="LEEeaACFnw4oo15WlWu0-21">
          <mxGeometry relative="1" as="geometry" />
        </mxCell>
        <mxCell id="LEEeaACFnw4oo15WlWu0-24" style="edgeStyle=orthogonalEdgeStyle;rounded=0;orthogonalLoop=1;jettySize=auto;html=1;exitX=0;exitY=0.5;exitDx=0;exitDy=0;entryX=0;entryY=0.5;entryDx=0;entryDy=0;" edge="1" parent="1" source="LEEeaACFnw4oo15WlWu0-2" target="LEEeaACFnw4oo15WlWu0-23">
          <mxGeometry relative="1" as="geometry" />
        </mxCell>
        <mxCell id="LEEeaACFnw4oo15WlWu0-26" style="edgeStyle=orthogonalEdgeStyle;rounded=0;orthogonalLoop=1;jettySize=auto;html=1;exitX=0;exitY=0.5;exitDx=0;exitDy=0;entryX=0;entryY=0.5;entryDx=0;entryDy=0;" edge="1" parent="1" source="LEEeaACFnw4oo15WlWu0-2" target="LEEeaACFnw4oo15WlWu0-25">
          <mxGeometry relative="1" as="geometry" />
        </mxCell>
        <mxCell id="LEEeaACFnw4oo15WlWu0-28" style="edgeStyle=orthogonalEdgeStyle;rounded=0;orthogonalLoop=1;jettySize=auto;html=1;exitX=0;exitY=0.5;exitDx=0;exitDy=0;entryX=0;entryY=0.5;entryDx=0;entryDy=0;" edge="1" parent="1" source="LEEeaACFnw4oo15WlWu0-2" target="LEEeaACFnw4oo15WlWu0-27">
          <mxGeometry relative="1" as="geometry" />
        </mxCell>
        <mxCell id="LEEeaACFnw4oo15WlWu0-30" style="edgeStyle=orthogonalEdgeStyle;rounded=0;orthogonalLoop=1;jettySize=auto;html=1;exitX=0;exitY=0.5;exitDx=0;exitDy=0;entryX=0;entryY=0.5;entryDx=0;entryDy=0;" edge="1" parent="1" source="LEEeaACFnw4oo15WlWu0-2" target="LEEeaACFnw4oo15WlWu0-29">
          <mxGeometry relative="1" as="geometry" />
        </mxCell>
        <mxCell id="LEEeaACFnw4oo15WlWu0-31" style="edgeStyle=orthogonalEdgeStyle;rounded=0;orthogonalLoop=1;jettySize=auto;html=1;exitX=0;exitY=0.5;exitDx=0;exitDy=0;entryX=0;entryY=0.5;entryDx=0;entryDy=0;" edge="1" parent="1" source="LEEeaACFnw4oo15WlWu0-2" target="LEEeaACFnw4oo15WlWu0-10">
          <mxGeometry relative="1" as="geometry" />
        </mxCell>
        <mxCell id="LEEeaACFnw4oo15WlWu0-2" value="Регистры общего назначения&lt;div&gt;&lt;br&gt;&lt;/div&gt;&lt;div&gt;(general-purpose registers)&lt;/div&gt;" style="rounded=0;whiteSpace=wrap;html=1;" vertex="1" parent="1">
          <mxGeometry x="120" y="160" width="120" height="80" as="geometry" />
        </mxCell>
        <mxCell id="LEEeaACFnw4oo15WlWu0-4" value="Специальные регистры для приложений" style="rounded=0;whiteSpace=wrap;html=1;" vertex="1" parent="1">
          <mxGeometry x="280" y="160" width="120" height="60" as="geometry" />
        </mxCell>
        <mxCell id="LEEeaACFnw4oo15WlWu0-5" value="Сегментные регистры" style="rounded=0;whiteSpace=wrap;html=1;" vertex="1" parent="1">
          <mxGeometry x="440" y="160" width="120" height="60" as="geometry" />
        </mxCell>
        <mxCell id="LEEeaACFnw4oo15WlWu0-6" value="Специальные регистры режима ядра" style="rounded=0;whiteSpace=wrap;html=1;" vertex="1" parent="1">
          <mxGeometry x="600" y="160" width="120" height="60" as="geometry" />
        </mxCell>
        <mxCell id="LEEeaACFnw4oo15WlWu0-10" value="EFLAGS - регистр флагов, содержит биты состояния процессора" style="rounded=0;whiteSpace=wrap;html=1;" vertex="1" parent="1">
          <mxGeometry x="120" y="1080" width="120" height="60" as="geometry" />
        </mxCell>
        <mxCell id="LEEeaACFnw4oo15WlWu0-11" value="EAX (Accumulator) - для арифметических операций" style="rounded=0;whiteSpace=wrap;html=1;" vertex="1" parent="1">
          <mxGeometry x="120" y="280" width="120" height="60" as="geometry" />
        </mxCell>
        <mxCell id="LEEeaACFnw4oo15WlWu0-13" value="ECX (Counter) - для хранения счетчика цикла" style="rounded=0;whiteSpace=wrap;html=1;" vertex="1" parent="1">
          <mxGeometry x="120" y="360" width="120" height="60" as="geometry" />
        </mxCell>
        <mxCell id="LEEeaACFnw4oo15WlWu0-16" value="EDX (Data) - для арифметических операций и операций ввода-вывода" style="rounded=0;whiteSpace=wrap;html=1;" vertex="1" parent="1">
          <mxGeometry x="120" y="440" width="120" height="80" as="geometry" />
        </mxCell>
        <mxCell id="LEEeaACFnw4oo15WlWu0-19" value="EBX (Base) - указатель на данные" style="rounded=0;whiteSpace=wrap;html=1;" vertex="1" parent="1">
          <mxGeometry x="120" y="540" width="120" height="60" as="geometry" />
        </mxCell>
        <mxCell id="LEEeaACFnw4oo15WlWu0-21" value="ESP (Stack pointer) - указатель на верхушку стека" style="rounded=0;whiteSpace=wrap;html=1;" vertex="1" parent="1">
          <mxGeometry x="120" y="620" width="120" height="60" as="geometry" />
        </mxCell>
        <mxCell id="LEEeaACFnw4oo15WlWu0-23" value="EBP (Base pointer) - указатель на базу стека внутри функции" style="rounded=0;whiteSpace=wrap;html=1;" vertex="1" parent="1">
          <mxGeometry x="120" y="700" width="120" height="60" as="geometry" />
        </mxCell>
        <mxCell id="LEEeaACFnw4oo15WlWu0-25" value="ESI (Source index) - указатель на источник при операциях с массивом" style="rounded=0;whiteSpace=wrap;html=1;" vertex="1" parent="1">
          <mxGeometry x="120" y="780" width="120" height="80" as="geometry" />
        </mxCell>
        <mxCell id="LEEeaACFnw4oo15WlWu0-27" value="EDI (Destination index) - указатель на место назначения в операциях с массивом" style="rounded=0;whiteSpace=wrap;html=1;" vertex="1" parent="1">
          <mxGeometry x="120" y="880" width="120" height="80" as="geometry" />
        </mxCell>
        <mxCell id="LEEeaACFnw4oo15WlWu0-29" value="EIP (Instruction pointer) - указатель адреса следующей инструкции для выполнения" style="rounded=0;whiteSpace=wrap;html=1;" vertex="1" parent="1">
          <mxGeometry x="120" y="980" width="120" height="80" as="geometry" />
        </mxCell>
        <mxCell id="LEEeaACFnw4oo15WlWu0-32" value="" style="shape=image;verticalLabelPosition=bottom;labelBackgroundColor=default;verticalAlign=top;aspect=fixed;imageAspect=0;image=data:image/png,iVBORw0KGgoAAAANSUhEUgAAAmUAAAIBCAMAAAA/NDhZAAAA/FBMVEX////9/f0AAAD7+/vw8PAFBQXk5OT6+vpra2vq6ur4+PgiIiKxsbHn5+cVFRW8vLxXV1dYWFizs7MyMjI7OzsvLy/Ozs4ZGRlbW1tRUVFHR0ePj498fHyjo6MJCQlCQkJ+fn5gYGD19fUcHBzt7e3Z2dl4eHg4ODgQEBBmZmaVlZUnJyfKysry8vLh4eGrq6vHx8e4uLhjY2PT09PExMTAwMBvb28rKyuSkpLV1dWdnZ3e3t5KSko0NDR0dHTMzMwgICCEhISYmJiIiIimpqZOTk7b29tUVFSgoKCurq6BgYE9PT2MjIzQ0NBoaGg/Pz+6urpxcXGoqKiamprMOJ/8AABCRklEQVR42uzWwUrDQBSF4XtyggYVKrS4EmupCy0UXemm8RFc+P4PI5PA4GLEzZ2E3J6PppN2kcXcnyEmIiIiIiIiIiIiIiIiIiIiIiIyANOXBYGB38OIMFuTAARg07s7bWLpd0evkRi6fhNLv8IMneHysQlm3XpVBts20bwCnL4yHB5OXRzva8/KsG0+vro4bp9zZRM77L+PbRhPn36VMVW2u2jjWF2nyjDHWba/AWO844K4unc+y15ai+OtQmVI8vKXapUBhtHwI6/58gfPygywXJn/zgw3RYWJOVbmO2yQGPxfmdWZOECUsdY2LqIykERhe4hfmGPwrgxzVVZFsbKMsBqWUJkhV0aMnyTfsXJlNYbMaSsrR8Z0Ma3ZOVc2YvGQz/8vqrIfdu6FJ20oDOP4efZ2FA5QuejKRWS03BRawAJyF0QRBC+D7/9ddlqIWRazLMtWO+EXMcfERHLy96WXgI3epTIHe2s35b2u7IeSGL31gvl/VbZF7zTLrjuddDq9qkkQfJnNDEL4dm5AMOchYlv7VxkRYG46aeEiDMjVebpXzwOBWrqTvmkEvFoZbDLnBDAQ5zIYHN10Hw7CK3cq0x4UPRgM6vc+APKNXp4ABDOpromgTfWJzLb2rjIGAqspalCoWExbxfWgftIx0IyXx0E1eP5IHq2MQbYm93c3AZA1jQ6+9rdhyRfPMwahvirAQW5VJo2UTffx8XHGAUgJXc2aAHhonC2Ajk5KJtvZw8rA2Pxz+/HRsiwNNX0ZsmL+0zxrVZJfrGa7nJx5tDKwWTs3HZwsZGmam0QrExlEgOaPGgxCaNSF9YU7lcGVyoyR2mDYaV6N2uMFBGlUnhjSudrjbGf/KmNgLPN5KsPGR+UMB+V9HK3KJQfMbDBGXqwMQjdUMBbxlcatglQ9TnKCkE+dcgZB8nFcjvIAiODSLFNfGIgIDOjooRelaECwKsP6i5Iw9/fon2FbGQecQVDucQgkKstpICOq9jxZGQOIc+KdYYNARPXjNoetMOz0vm0MyJ0X60GNn1fdrEyJaQIBMO8GMzNbuoYgp5XEstLY5+tl21n2IIndkRk2SryWlyE4lSEwqDQ8WRkErR6aHk/zEKTT+JHzLClUuU8MxjfcjG+6p7p/agHuvWKWk23/02kXoIaeBtLqXIYwuz87O9X2+ErGbpaV/E9P/hZD/quqRxc+siuLzMzuVyXhA8h7lTEA4YfIMHvEAci10koirmmcp9WiVVgmjKN4kxbxKpGblZ3FU6ls4tqu/qrp/KeGQYBU/Fye02GWBcXupBYMCN8MxsFc0z4u0weD40qiyYk8OMsYAO4rtLKXJsAbz6dh9Cft9lrzL01og0utN+yzqVgLLp5jZvr9vqkB1jK+ODpal66qEKrL4FnEt9+zDKKyUUFsjwQGaLPbbDkyE5UFE7nzXp/DxgRPVQYH47mlhfzNciqBmReTScOXnBAK8Rvuv8vzhF9ytzK1AQdfj8u6oChTGTCegj2/0uH7XRnm4uifABBsZKXKF/Y5pqFxgo15b5YB3DTz4djVt0Dg4XgazhsEgepi3R8dFwKDohZOrcISgQDm1pWMFzgCl5VOTUhfZSXIC+XS91g5vt7zypxzTIHgMIpnk93Rv8BeeakyxsLTRPu8FL3mc+XE/220lkAgeXGy9EeGG/lLaY1wclisy+RmZQ04qsO7AATfvd5k/VQlRtrXctFgO3tbmQybYZli0R3oGe9XZsSeorlVQTbm0YSQMUCA3OrMn85Fcd3ijFEt8TAD4F5lSrrZah190dLqRINgTJQHbVUeGUC1pNfZzr5Wdt6ySdZ9cpXZ3JWjfacyxkAerQw2go2IQMIbd/oJIPcq06aqquuqctf3D1vbP10fRmKpuJ0631QSnG3tZWUspCtid9RxPTw9URU1XuwSmkM/B5GnK3vFQES7FQgMzi8QyNW75Sisb4VMI99s5OGQGkfdWAu2QCO2x3fLhfDi1rYOQKrGaotrCYRAqE7Aj5F5qjL2Q2G7n5zv25WzfsXcqOxngPNw/Nz5HlZmf/0ENuY8PFvZn3Mq+zj+i8p+36EyTzpUdqjsLYfKfuFQmScdKjtU9hYvV/Yx31vO3sGFmgmEPwxf+y9/gkFuFv44GuN3q+zsOfrPRSJRN0Qiiau/Wtnzp+C/fuaR3f64sUups3er7NMH8xcrY8+fPprv7JyLVtpAFEXn9EYiw0uwvItIAgJCEEQMb5GngKLW//+XJkFtbbGUrjaENluXjLAwONneOybkbMUyoBI9MIGo/KHnP/j7+At/0DLGjk2ZHH927yhmxuxsq5ZBx4QNO6IfUmwtlkpjMWlmoNHMhUPsva39C6t/Ey1bsx2rJUsBBBNe8lfLVm7N8pYBDHgZvcfatCzzLQPw5jf4ZfBnLTOlzkOD6ZYBDAy/NjvA8+DrfVuy7G3kzs9UNMuyXzUGr9CbSJm1zwfbQcsYMyy7+rUNrU4826JlRHhh+6n1umWb/4EwEMgY03rLDHTLdu046tIytrlkIKJtWwbsqGVv3pP5NvLsP7cM9LZDYfu17OvLsEA6sW7Zb5UyA7ItW7EMsohlGsRp92oZ0XhYSYMYNYZVEQAvT0sg2zKAgRy14bCS4UB1mEgMA1XFRMv0J4sCN4ZcSEtYkuk76MU2thlbrGXp7p6RFUHT3KQFwjjbKdvrsmV/Kp+rhYKr3QK6e7Lq6t33FTLRMnLcRGoMYM5m3v9pGbVAzWQGOqF+CxsdHNuqZVednuskDcA5Cj9x/eKnawWAbRkgRLz7vofbeQhYeG8vfPWgPDWplkGDB1KqywegGpk8NbtX0JEuJ4Lx6PC8CodDBIjM1mxzy6TTQnw0zwCEQKGToZo6L9nrMg0AJTnWALhDAha9CkF68i7SJtUyXahKbaAXLs/jQYbACTrp2EziIgicizyS9xBgfcuY4yDp+NRLEBGEE2+3lZID0GH/vWWEO69umcGiFyCwgBwtMbNqGYHS+ykBFIhNBYVDgwGZTnw4SwgQmxeZei97cgeQ9Ttm7fBRCagRDhBdJQuPrlSawe6Yxn523nsvxyIA0msZmJjw5k2qZWC6PJn5JwI/CXZTkXra+GFUKUwOYoWE6Mg2GzM5P6gywPK1jM9UN7XawRY0pKY3p/qIbMs0ABLdh7lkvUUAFrJbksoxb8K0dRkZ4a0JwDkpzNzHnT438svq4W7LMY8otcMaTYNlTtgBy9Lt9hhK3XsKiEBV3Zu0ANuy5/3Mi3k5F6xLwOIoG026XMeKaZbpnBUugMzHgYJS9LJ0Opu5lf17B5NG59JTZ8yu70vM2v9jPr+6gHwQ8NXiYb8TxITrcE9OGC2CbMsMePlSPhpylj+aTyYnNQkwrWMC0uCjg7GyegNU2wMtv2xWcUQ/ERt36vyy7RRTi7TFLWPQ4cd74UJBde0VHkBUC7abhaQDGrZlz4kUSA+8sRLTOqa+Ajc3wcCTGolAUa1zadCpGYmfxXkfyuDwzjnqSp5YnQMgK3dM6IyT2eb07PP0JHcrwZMPf3Y+euO2Za+SMQDlTqHB8r0KAcxMy6qfLl3BwQUX8sHL1GFcgLFSVIOXfvWJ7j5+hmfUOb4QCWCWtQyMCJQIxzk0Qr1YQ+yH99NU7KhFe12mA3KWBIJ0I088mmUBky2j2kHE709VOBrHkf2pAMJLftlQQaObAU39s7G1V//Q8ezLFegI/p470zn0EaTb3L6TkW0ZCE/JbnM4U8NuDsMyc5OlJGdaQwJISQvic4PhEk8LHOD6PdqQrG0ZAwF32WQJIAK79XZvc8aJptbcFbCP/Rv72Rfr5XJy7FQB9nsPMNeyt7DX26/fEHQsbRl0nIEyLV9uKVAuulvQoNDZ2O6YxgTxjG96VslIAEIBj6mWPQM8f74CvB2Zbdjmx8sMlVb6ZFv2Lc+7c/tXl1iJ9ZZZLyfjfSxgmWWuYbIStmW2ZSuxLXsf2zJLYltmW7YS27L3sS2zJLZl7wDYlv0poFkmT6ImUNg1y5iRk7GXjJpAUsv8scIVbX8J3bJ3sWh+mUnAsOyDWZyxf9syVyqyIYUP3k2fk1J3zDLo1M4jJuEvM7B/2TK/c0NakQ8fnRviuNwxy4yWKTnNwiP9w7XsN/LLACH/IbnZjAA7uPo3Mc9kxbv0diP+7vctg87y69fZNgbfWPbjyTu8sBzuumUMOiZlYuKPWwHtg7Yfw/LGslXT+wNEbMmPlhG+5d+wbAlgRifTt/DnS5m1LFtVvglL6JcsAxG+Z8ePl+02Vgkue9cyAPSiGeENP7EMtmWWYjcsWxlfua5jEtmWWYZl97EGKywTrz5fiNC5CKRBxq1zTS0DQ+nsIQ0Nak0ztmVbAVyS+PNCklcCBAKDSJsv+v6uZdBpHXiTDuj4s0XDssjH8jrLQMfegpsA8BtX37ZsG1A1vp+vlwDdK0eySwCY0K+JjAHWScmDDp3JqjwUAbBR4QI6I7W21jJHNpx7VADwU28d2Pmz5bsHGqmD+kn2lhuWVTvLM6Ol1Bnndx4yVbP1lgmPnVP5XFhaVn61TH/4Z5YlXNejwwYA3rct2wqIZyu8FY0o0KDKYcNolHycRmviI5Oq2XrLABBhfLgozbOh11pGL5b9dPWvLFzjQW5qW7Y9cNIpS4H7J04ASfFssX8bIioPFV9ePk94LGQZCJ/lphj31rlhWU1RBEFpr69lxexCeiikBNuyrQFfMjUYzTxEAAkLNTJRYyVpMUoHOur+k9MqHRM6SvS+gStXSne/nRudayx662oZ46dhN0tHene2ZVsD1Xyw126ARC7CMerdZJqFiif6iSuRvFO0TMc0NGu4LiXmzBdqei07Ujsa2dzaWuZJzccMfbku2ZaZD3RYK5KqNDvXzsr19akQSp5wlIOVavIGpdiAw1KW8Xj4+ipU7B7dgmkdc5rRSb5bywAYXy5c/ovQ3VBuO5hh2fP9tmVmAIP0YlICP7mvDvcXM2E6LzJePyy5g2WUOw+wkmVf2LvbnrShMIzjvbiZQBFQwaAgqOVBC1TFIBEpiEwXEh1u7vt/l/VhGud0pgRordcPAuVFX5D+OTQn9CBI3ZQro9Eo/+UgAbgzGYJtZyZDXqtMgU2+lvOjyih52NyIuZWJcwdY2eLB0cvWY5KauutjanebZ0bL1NXioC8P2UtDDUxlAKTdvDlvNBrnhXJH4M5kWM9vV+aqHmSvGpZueif6VBlY2XLAkdJvf13XCyVNBDC6lbW97d2T6HA9gePmdJIIUmVGPd2GvTFO7xjP58vkjVlZKLB03AlZfEsWak5lj/iNuQTuMZBe92Z7eKYJIIgW7/bM6ZkaLY419H+aYyNIldUKzSPYWpuDPsx3K4NN1HqlFBMBqmujY22cjncymUxN5Vi2JLAJ/hBnU8Ej8f8PDF9UtpEcGrBp+80HdX3QAgTYOjjBfypDKperAQJRLyp17Tp5aEkPE4ACsLLFw18EAocEszJB7eK7wNGytn6UErC1SylA8PrZvwDV6w0NFsHRJKP2Jw1bRxOOZUuCp5vybBRzt4LwW7MXY9mzR8UBh/3yjfMy2+tXM/C8jGZewcCtLPQrGBArow+FldG/WBl9PKyMFsytbEuLepPaj9waUW+qQ1b2eVmVNaf6qTfNSN7rLvomK/u0uH4ZLR4S9fvd5cidGgp9SoDEZqCqMe8CszYILRlcM+ykeOT79c3knxkr8zwuIUBrgxAREREREREREREREREREREREREREREREREREREREVHwhfIqdX/eVK8bDxf9SpvX8VBQ1OPhol/Cj87ah5GQyUbn96m/j4TNsU+VlQemWQgH0zST86tMgN1IpRAiubJvleUnK+HRj8+vMtiVbfVWwmN15FtllVUJyWkuAHVnzpXpYVo/9CQ578pgcZ/frew3e2e6lDwSheF+PZFAQ4LKjishQDAsQkBAFtkF1BG/7/7vZRJABilnsUoiDjwpkiZ/oE4eTp/upJoN2b3y10rrbGYtO4C+0DIGsM1YhiVseVxhM0PBpWUE9nXA2hb8q2Xs6wEwf30MbeYzf4hl9IFda+4xMIsN5LIvtWyVf7aMbQQsIFpRi7CEbYIfZtmSD85szDL2hYARZhB9i2Xv4kez3fI9sd22jL3/xREBH0u2/ZaB2Jpmtlu2Fka2tG6nLZvrxdZqsh+ay1Z/K99hGTe8MxIw4fWb8r2LxFpZAghiwptlC3bPMhCEktdkWlZB9bLZyjhEAMqzea40VLY0lwFg4AoHA6zjPI0ReKlEK9mEwca6rN6Q4+12vD0BKFe9jIfc4YLQiTtFEN1HA3W2YOcsYwCdtENmbOKBEhNu5bgZpaOCQsg8Wu1UJ7eduQwAD1ZfnwwCv++2JiUOEAC1ccthcVJQ8IZNlgUDge44nx8bYPWY9pLsvTYDQeMy5AXLJrUnzhbsoGWMRvLRLzM4Jy7mCmvVcT8ZT2UAb/vybtxthJwqaBstI5RjsbCezqF2G45VLp8xY9gcEYFAxUlWrKuEGfZY9uyLDjFD6GmRGwXZcmuq/JbDDpTcjdru1mUMEEehHscMV1iumfuYdm1ZlpZAGX/bu525jPDrd10qVjKolxOOSbtPgKWeLwMLquXIEZ5+h2UE9uzXpyIAURLgOA6N1HS7z3fbsnO5w0GgN8uyV1rHsqwoAY7wxWgbLYMJF6EUowkQwJ/cJ5g1rlOZ8XkCcJy4Mmft1xMVJswuyxoJbkK8Hz8Wl7XhTejlKpRWabctG8mTLOd8btkz57lj3/TNsvpAHm+jZQwg1Sj1or8UAuA4btQZTLLOQDrifsjhrlkbB9yxU4etuUzvXJ+eehThSjtjAGhu/tmFVrkH22XLmDjSGqfV0+sgQQprV9enMfeVYFkWGwqOajvq2FLLMI1F9ZYDRFBOm3kOgCAN4tXna/2EWgOXEo7lFABkn2UXeqCiO12qU+vhL6bugwjf5fmyuWVypVLxnYumZYdmmOJysQZ43Xra+eBu5mk7q39ANTLJyhiA0vdVs6x2N+o7jMvbLDKBcfahpbgaHQWwtcd8LBiGUefqq9bBErGnHerB3bbM6jFvg2ZwXGSNMT2GMY2FnALzurVAwJ+84Vs5k4E5Qd0USer57wCMj4/StRN/CfTbV6v5R7hvFmDB7LLM8EXn/bZSlf8gvJGJH3Xkorrrli3GmMTm1T8SDa3MzLrMQQSw7bSMcVXhajc+olyr0c9ykQAwXg1keC0SUwp6CZ5KkIv25rKFZeKJ+zHHGAhcgSPc9rgednyMSeJ5qLMyk8EAR/HCY1kmvb9C22QZY/e3T91WJZ1zvcoP1e7vBCyyyVC4Gk556TpQx692Mi8BZKNlizEIEgO5pwIk9T18JKdVFLTIcJctgzhatywxmOcyCUTbahkM54u/0XHAuKyk/Kmol4EAtTO59R+fKNR1qkgUU6eCvdX/S8aRy9VViON2yDk1POHK2LhsBwE1pp3u7tw/wMS7UKueM1GsHrMs5WpX8oMKyzK2tbls5VYlWQAMC4j+ai5O2GRZ4kXTK5WA3gGoEI1fHMrNnnAWumIAyoGKwRbsnGWMQHlZrpg0b5iatsLUdsfugbLu3OIeE8CaS8v5KZMV6eyc+8/2Jx2TSQEA1fO9zl2QZ/Ons15U8fQSbMHuWQai3GnHojcEn/bMxpNHIiDXLSjvr882WcbeebR8GHupH2Ns5axNljGswOb7heO7/XwZW6YDWouQxRZb9knWLfv/8CMs++/sLdtK9pbtLfuIvWX/wN6yrWRv2S5bBpAt8ORPtAxkC/hWy0jcOIr33Bb6g69ewUAVNw4l+ue20JG/zTLtKLl5WpXDC1s4/FLLXg58reTmGVzYw+HBt1l2cGgHB3/Pdq9fdvgBPzg632NZKRWwBe1A9gU2j0/+QssYK1YCNuBrHxzqPhvCox9+k2XcZQfqsHFwLLg2j/r6lZZBcNmBWtXksuraOKq3/T2WYQbbNHBEDmJs4wBfOMa0IzKLlHmnhe7/9vO2aCYDbyybzGovd7D4+wWo2AZZWgZ87gLD5H3LbstsuPCwsCwDmLX9M1iDLV6ww7L5N3wPAwFrN2S/j0/lMiyhNd/+06zsT5tHxSyX/dfAED7EBss+cHz1gbIfZhneIHrnG9HesjVosSc7LFt3fH2BLIDoC570tcsytozh3rJ3rEaFVtp2WUb4wHNazQk/yDKAC6qgiCBBEAGQKGQJoH2PCYiCqpqxIRBImbU5QLDFsgXry5WSWB8SaAsKs09ZxmvXUb1y7FEd6UePSEQ3qZZrbxljAAq+is/nK55wQKxa7ctkULSzLlOnBWF29N6N7gkgQEifcVgYBqefUpeRtxF/iYX9+rWrq4VzgJQO3Yn76t8EqGqXZ8mYrpcIPK1FzlqReCNoVy5jUKZ/6GkJQK0VLkb+4LDINasz0SncElbmNj6BnZYtkrAjIv9huFxB521daoRG3FrNRWUMbOctA1AN9dSsNNHOBPCi+5cg5FramWpbLjNOO76kJVbxKKPmMgSLkq8MC/IGRdetlz61xLf9uQwAEboXx3WYuIYKTnT/MNFwZ8BmX3vHLWOWZVVOyIcikmXZWARO5EbCtrpMUJ/9XUC8jt4sp2b5XfP5viSB1Hth+Fvv3WdhstWWAUIx3udYoLbks458xZnJ3jLMLQPvap3sm2UeOVK3yzICK+hTQIrEzrv5HMFCSTaTD76kinGj9qsZH3QcW20ZLJjh10sgIljQTSqkPwaxt+wtl8nOwvQumjJgWeYhSC3TOPvGmLzbTAA3bb8z9uKc66Qeya/jVqWMyaVDDUcyDg5sdV1mUXKnnkGEOdmnC2sN2r1lc1C90Npt+aLhAHg6dHveDcuXBuyzTG1FFSAf70pK11eWSuWSWnsJq8gE8sqxM6sOJgrwEyzTU8+MsEByappT2ueyZY8pF/Pj86I8SICnL+R2u5kcgsg2y+qDGIDqY42J/VTJ8/AQq039BUb5QKZ+eU1GKk8wYVtsmbXB6jEZFvC+PojE87S/j2kBNq/LSCrKXYUX473STU2w9T5m8LHHGPVMy4TXaMJlGDXhd6rG1HRU9VamrBB4Zj8il7nCob+q/1qjcpN3D6S9Zcvq/5QDrHpxq/Ki7qHZWbvWyeD1zLWvYwjox59KnUBXgYlyJk9KHf2cRpUEzvXzG/WTktk+xmQAqHf4UIeJ5JWoJ59lpbTW3Vv2zjL0LpLqbIxp62osro4v4K6En6EmA75oV4WFelWM+F6qClXDLtw3KhPXducyBoJJvSE/TIcJz+CoduO+rIFKgUCQQLTzdRkDVUOdnOSYPupTMi3L22oZ48bUW/ZmBMBV8hpZzOBDR8IbzIJyNU6KUR6K2OqZjJllDFQ6aut+f8Xfz6XlLgcJE+1V3Vv2J3t3w4/IGsZx/Pq7xoxuKnogw0pjUsqkVJIKoVpPx1rv/72cmSnprHWsczSmur9WTeFD+blnmu6diADksvFerxPPbygkUovXDHhX2Qh+tQAfzGb8w8r6tPT3veVUu2g19m4asHX3bgqwycqwn+r1eiunEQXQnk7PvrQy7r8z/snnW/+EAXZn/gCaaTBsrFgsKyMCD2b+WBpshiLgbWUEEA3OCAOD5ZdPga+fLScCvZrvP7w58nlMIjieF/qnE3GcjLd4X5nvjsbyDm8r88X/YfI7WZms7LdkZW+TlfmSrExW9luysrfJynzJrixZWhq/SG8yK8seR5bGb2PNrmx6M4Nd2dy8JyasMjhOsl7dOe5YNq2ZOZVlFz8qO7f18a+ZvMqYDuKLHjkvYYoHM7syPfxBkeZcNPxBpcTkVQaoYa+UgsxTXVkKH6TszSUJH8EQuxNWGcFb0xzZf64MHzN5lQFgeI3+F2B0Gf0T+CHeQWX0DO6Je4bBm2N0cVAZ/QrkwPDtBSawMkIfeQEuAv0fIDjIBXC/MPZDZk5lr/5++de5IwTHaGW/u4Gjf/+MKdhfBpBXPmG+BGzDpsDM6GN/VTaMZIj5H9dR3+vKRj9/YAoqmzAYIMfIGOGDDb7fVkZMcDEcf1wZMWRlnni/MhcD8MMq8x+VMQMMGMGCagEQQZMxOH+/MhFQVZMZHAhqsrIvAAc9V2YULIBh81tlBJtWv9Nj+vYqqJxoKwwgvXIT4PcqCxwsx2J7PxSYu3tpWZmXMMBqZSmsMjlQedgHGGyWLV9VBhuDD+I7Lf12MV9EJZ8IwLafX1bfGcv4fjkUTybj+Q0r2Gzty8q8hIHVv3rLmcMuCIB4igcJDP7ZS0NYXg5p71cGPsvvXDaglJZzRtWtjP+kMjWRTZSFuF/4S5WVeQ19xtF6NXgcjTBs1q7OBFt5SUGprfimMgKDrKPsrskAunVRza8EAFC/MrK9WdlBKFknAoL37lg2HTN/JgX6Cg83Bn/PVOEIpPbMQlADByxROHwomvDLcWVhq2d2VsFwVWrOWEZ09m5lYmHrWIAYNlmZ19CnHPaqkfUbE45ycyEVby0h3fyePszmb0+EX8YyAnjp/MGCjQFU8w8HpUikdLyz8k5lSjQfZgZkZV8BYDhK0Xx+M9C/4kcts/HtVhfhaNUoRZ8avhrLRC6UEOijan5uyzWfeKeyQDa2CsjKvoYbGXP9KLWbTNSN1f1iV5zk74Rx2jK+RdOI1PYBX1V28VIZqvnW8cnJ08lm6L2xzMxm9sGwsazMcyDYuisLaetHPFfXYw93yk2zC+VwXbR1lXOZBuCfV8gBtOsd3QC4X9kvezLerkzJ16oMDLfLhlMCICvzABw/8xWibrJtWIoigqlTk8Oxp+DhgqKcphT/7MkgALwfPy/3c+GXyhadyhh4szKjl70QBB6OZXAQCJCVjR0cfJB/apTbtyUGQPWkfhBZ1rt1/VgE9jo/ysJPlSGQyG4rDHC6ajiV0bAy/EtlfLHVTBPAhUpgsMaES1bmBdiosPvQWU9cG7BRsdPTW72SKOoRNjbOmyXhozUmg0vnO9tlQ73qbCrO/jL6s33/9WZ2uWia1VSiruqtijAMi8GA3C7zAFys3BfPCgJgAEpXLRftC1baZJir9wrDJ6/2BTAD4vtiKB+vnUeLqNZWBttlvXfWmOBiM3tei+fzOSvY2VqM26pyLPMKXjBGsftOXz7NbLSyPq28sf7QuygA9YU7Bbbu3p3575UxEPyWSuo394KU42bSpu+DZWWeAKGPGa/47jXl4GBAWIqlAcyGwbCxZfzBzB/NUCwBm2EpDg3MsjIvwPUS2/PC6GXyz3YZjUwLHvm5iYC39pcNvXoddrn1/0cmbu74px8nAzTincocz3lNyXEyJE8qo7crm4WjsUiyMmlyyMqk12Rl0uSxK0tGPuinPhePfND1sqxsdtmVbYU+amtu/uNfIyubXXZlHpGVzSyI7tnZ2eq4Od/irM4kzSYGYdx88ESa9JXwn9BH02RZ2SzDe0frmLhDgUk+BBDIA7IySZIkSZIkSZIkSZIkSZIkSZIkSZIkSZIkSZIkSZIkSZIkSZIkSZIkSZIkaQKZxdXp8plHYymcrU6XMxX0FcqZuSkTVehTAHQ0PzdlNjXQV8jNZUNTZOsTK8PR/Hxomsx/UWVALrQdWYpMi+vlz60s/j0yPa4Wv66ynSVMD7H7aZWxs8ZMFjA9zOiXrTGPZWW/B9Dj/MOUVMZjrwzkAv6lMhoDEOgfMPKBcfjsynBkV0Zjhd9eNwafUBlGuDmhj9zLTBig37DXmPS5lQGEF4RXmBkMGgex+bmVJcdZ2cgvCa5xHoANoP87luFX/HqJAbxR2efCEI+e8+iPMgGV2cZbGRw8vHsYQzQWn1wZ/7LIANjzygij9yX/UjwxDcxwZQwb9/+5lbGfK8ObGIQX5GFlwlJcAmwoNksAYLYsODTDALlmtjIYistguHeRAZth8WRUxhjBijZ6jXeVcbin63pTT5Sh3Om23kZZAI2FlQIIXEm0BblmtjJzM6k7ngSM8FGzeRS2oLX36r6tjGATjf3VIAOicLbfEOgrdcpuZErB8LYykQvFDlOp1Gka6nq2k0o8LJ5vB2E+bm0KQE1kD2Z9LOtmsgn7DkocCOVyp5bo1KKrEL1a1deVGT8TD7VUnY3rhJ7XqwyHaOtBIoCuD1eZNfSNuTICAeI4lGNhY6id+KomlKXk2rbAfSZfYu37WmLYwqxWlm7VApoQQsNqtFbRjPpd16msAtCQ7yq7P81VNmsXQjk5rm7k/xIEm5XaE+6Hz34G8fPKgo3GXxmIRC50ARvBrixaJkALR/P3JE62DlX1oRae+a1/uzITIIBLaykFgGB/VwZboGEg0soJTTFQT64LBsCB2zvDEACEphnNvaAGMGj8Y9lLZXiujGHuZu+IgvrOVS67q8z8nox0NN6vDOGdTB0On1dGABuKuqDfA2DtOnrsRoZK9OYwvp6GsX5R7W3lMyXYyKOx7KabrqeV4VgGcbWWYCCyWAvpacjKWvn9dLqualD/ysauVYEJGMuUk9NmbEnAVljR6yAA2tVO53Ijf2qUowfmVf7kzASY4dFYdt5qtWJL7FYGG4fPOyYQWJjPXrCsLN3airei0ccgkF5YCzWPCz4fywiAeXV5ePtdAUjZvo0Io5BOq+Lm/MqymivKUnSVvrfqBDCzV9tlvY3Ly42yu/VfhiO82DPcyrYuhaws3Vq7ubu8PFAABK8SO9nDBvm6MthYiMC6ngaC27dLAuWV29idklq2yEo+Gpe3KnY7qlsZxl0ZAIJdWU4TQjCGlYlvaykAB+f6eWZfVpZu1YLuQ0wGQQSXYtlLxdmT4dvKCDYipWNXdr/XrAIwGul0IN08BpfiEbGSUqz1G8Pbyka3/gGGeZQ9BgoPrcpJdiEgK3MfY7oIIIqEkl1/7y8jpRIuF2/yOavczDytlgsCAHE4uleMNJcDjeSdUJOP+yozw4vKgF/2ZADgH/F8nYzLbFtR9fNruScj6lRGBPeE6Mea3hC9uH8rA4LtTCxzuxE02vOLt7fJOxMMEj+TzWRrvYj9VgnWX2srFbcxDx5juntlL9wFdiqrEwevbtfagiu1ZBnaSagTpIFZrawbjZtkgwh/qwuu72VvFJ9XphXCS6WyAVEuRSJLkbKAjdVy90e4wTArCtAoVRT2Yk8GHEYupJ8+Pj623WeYMroeO19sBziYCn1jhrqydcHUN7OVtUJHp0enj9dKezGe1KOhXh0+r+w1wpu8qIxLnVjMHl+X92HexGz6dtEAnyUOFYC5un4468+WB47cOyizYaQv12OxXq4AaJupMtinlRGeMUbxcGrqC/JmLIOhFhyqATad86DF7rUBAMwiqM76s+UcKNgaDRNsBFQ1IGALBIVvxzIivI0YIADDz/JqFuNwfnj/ZHgZBCaa+ceYzy+zDcfLvUY+r2z0t4mXW0H9ZXIAnsz8ocH3xchVruePQFb2N3t3opa2FoVheP0sBAkEVBzQopQQJhksk4pGUdAKVY+tvf97OUlA9NShch7ZBl2vlbT6UCV+Zm9iuntf2d3eeoLHKpvE48o+jpmq7O+kMk+SyqSyp0hlL5DKPEkq82hl0dPYx1FLvFllcCpbuY19HIPw+1U2txb+QApvW9nWSfjjOJl7x8qU8Pl8cyr43rKyX1tzStj7Rgnfe1WGw0FEgbO8L1WLTN/SxdtVBjQGERV6Ud/Xqe+cpUjkHdcvAxGmL7DuS6v4QG+5GguDMH0ENDO+JSjwbrN/qOFWBgXclaVma9eAFVTG/AaV4Y/VpBzj34Mw8vQ9GQ6a3suoMgUfZgqV0ZRfbG5l0/8wmNpqLISH6LFhiVM3rOyVP4x1EJ6g+HwZQNM3qoxe437PMGNE3fplGGHGEOMhHr+P1LuvbILHAQePP2+esLKZMlllLmaeYJ+MvWVlj8fj4av3K8OLlbFURnCxbbyflF/FyBhvn+puRirT/KZp+g0GwIapwWH4NZZjGcHGw13k7BDW/IbyY9n92HLPqBrg94/slZUxMxBLLyxcJH4sBUBcW+z7AVSu5jtwfPbKCGBw+0v9oridZe4Uz1h1ZcFAUwdAXG3VVg24WvNZtzL/YcX7lRGDoX0p5BcXrZWVehZonuS/MXPrxMpKZURwZdfDNwvLpVMDkcwvTXFl+iARjwDQYvXz1Po1HFpvIwDHIL0KEGwEmoD6EdO4im7rerW2WCjqMI4LxxXoicwtS2V3T8J7hd223u6eOZUda4pXyTuYt+JlQNtZ/pH9HjmEo5IoanA0DwIY7FRg83RlRNpVdBO2aiLaDaJtZZaM7tq8BpmX3X0bJtZiABhQfCwjAFrjsGdVCdlEsjI+uOo3X6rZAANV05+9WW+a3q6M6L4yqhXSVWj9zEUrtXctZzLuKysWTkNuZaR+xGToi/Ma8e+bnVazGoSrHP+xu1H8DqN4Vp6Pxtdb3q4Mo8oItkZpeRWopjM3mVNDKrv/Og/C4a8dA4DiERMEW+OoB2jFk8X1fLoBBw8yG7kf4aTRjt+Gzkrb30bfA5NTfyxDIFVqARzLzKUaQQAs8zK4jO29QrzX0Fh1ZQ76WYoAAWtjKVS7TFYO2+2AYa9fxpp14a5fdnDUBsBg71aGPyprgrhV2rq5BiCzfyIMBcvJ5cLepvLnmASA+yurwPVRl1G9OG4fJxZ/+9MLBvnv1i+zAgCYPTxi0rgyckfMa1AgXbKiSUMqc4CYARCM1d1ofpVUz/4Z8OdSfqBZ6oNbN13zWyyW/W7tA62VHS29aBoXyQp5vDKH0RvNy2qFhDP7D+82L0sdGTEdALO7AbIXhT4pHzEr1Y5l6Sa3l+fb3xY22rBxKz7fbq5benXj1Kimku0Qg+HheRl4WBkArtaj20F0UisdY3utbgBB/vSVDfcQwxYqbv1WXhnFNlIn4fMdTduPpy7XW0EwEBykUht5q4xO6if5/8kkWkGPP8e02SNm1zQDrX+iiUMYx9Ergw7P186CRHIsA8AUuI1VTX2zFC+T8nlZtntgazDM2sFOVoMj+L15fXbWZuiRENDoL5mePysL0q4KN/X0RTyz3gBaJxsNIBiJbrRlXkYER2djbz29UAp/qUBxZQwH4Rnvf2HGqysD78RLpdJR+iDLMPaP+hoAc/coAgJ9+sqYAXNn8agULw5CQGv5ipUey4b4qbB4/AdmwMvzMnpw5U8QYDb8GhhgwzTkWEYEF1f8oyujNL8BKD5fRqO2aHzjIh5tbZ7/afnwBo8eBpGc+3cBf/5P1DOxgsFz1FfmvXUynqO+sllfJ+NZUtmzpDJvksqksidJZc+SyrxJKpPKps2tbCEUmD59ftYqg1vZpoqdk91zKgM+bGh2Zb45JWazsjklfL6k9oErg13Z3Nak5v7HfWatMti+hbcUmfv60Su7vN2cUMq3N+l9zs5nrTICh3b6m2r0V/kDV+bO/sGTMYu+FHgyWm7GKiMArA7w4SubkN+pbEKzWRmm792vl1AAo8poAqPK6PUwg5Up/cLjLY5lD/71OJjIQ/m6lT1aVOQejd4wfN+Dyp7YTURwjR7vjJ8vg4J10t54sTrcYdx59zWlHp+VBZjxDH7wuTqV/e3xzXxlqr1RZAwwHOMNg97dfyt7Gb1UGeEBlsrUw0NEnhkvH1XGYAcw+sVwjLfPV8YuDP8G2FgqU+nxgGIc9N0tea8yGP3EYiLxT/+QwUBkt+zmNvjV1F6srJG275XulYMAgq36T7BUphy05q+N1HGDGbbA5am7DX2NaO/e2R+V6Ym51LkVz+yd6gBymb5b13Hm4MXK+GCrZJ3nwyfpBkPrRvelMoXGE5aOVax18zkDjk58CTYK/FrSjFYAikt7ubLFrVXTDPTz0Z7mVLapYVQbv1RZN3oaCumteiFx6FYms3+lwHD08k0OrNcrzAAP4t+JAGLTQCNVYy+tK6svFqpE0GorJw2i5Kiy4+ExjV6o7ItGxIHFtX1DKlMNI8l4OXibPwvCZvSWW7liC8Glnv82VUidBrxV2SFsRm5rW6PhsYwo97rKgFo0oQ8r+wDXl80OMBwNazmdOvDDYRZL57v5vbaRXjDL1nI35vfQurJ3leEsmjApudZbbdjqr61M38t3pDLVQHBwq3izZ3XYME0zeGjtxczI3lLgvBesLO5WPLUSuzNiwhELL+uUm4uenIRPwoVXVWYLpcI1qUw1DDNrnv/o1FK/Apv19HGofHPFaK3Eype3OEzts/cqYwZapZRdWeE8Z0vmX1kZQlbpp1Sm2jAyPVEPQUum2q3f3Vvj9rJDxmlcH6x00Iw3PbTePzCsDMy4zaRNZz7mN2yj2T9erAwgBMYjJojgkMoUAIHRjh/7je/pRBU243SvptduklpvuYqzeDOkgTxV2SFsWm7rynBn/wwg97rKQK3oRdWtbISkMiVgM38s53rFhZ8abP7dklVPLbT9u2kTkdL5fsg7xzKGvuBWxuXLaAfDytip7OAVlTH89Wivom3fVwYZMRUAwxHo5pLdVQ1goDIY9I+/NIKVnZoGvZuLGN45lt1VVvl5UZg3yK0MYKeyl+dlv6P7GozrH2vWNY/mZQBYRkwlMKIZhsYMG3OQg4YGQAsGnXdo3jkrO/wJ03o6YZUyu1VgPGL+dV72eyueSF+sRK0yw67sqJ5OJM78DJtUpgBshBF+dIWZjb0zYgL+06N4PL48HwnBtm3V3Mr2rciLlSGWt++VX9j/DiC4tBE/svVCkMrUADNA+A/mPypjj1RGQFBv2LIhhiOU9QNg6Pb2pcqo0rC1AwbcUtsNhx6U55iKwEF/ZkaEB7xTGd11gXujt71U2djd1UzDVzmToci4sgcjJ42+Dg6APHS+7P56fZALcG8w7u/vlRHGWwByVlaMK5uMW9knWI1FSGVihkhl4jGpTMweuzKrPKHWuu+oPKFvaans87IrK8RXJlTwbU16n3hUKvu8AgtzqhxJZZ8UKkvb29vd7anrbu/faiQ+JQDDm6fN4vo5wnPAmJgszyUmg1FnNNUXB7NU9lkNA1MAIIlMCCGEEEIIIYQQQgghhBBCCCGEEEIIIYQQQgghhBBCCCGEEP+ydzd+pWRxHMd/337TMEcmkSi6XYMoDyXPiSii56f//3/ZGazc2mrtZgzm3b7Kdm+v7PHZYxzjsNnmjUNaNBnQTxHSohEAzUAxGlgs6p5EPwKgsBpYLOqlAzQDueTKgvH9WGUora4smPCsKks+VEILo7L3s5WlWgs0OJfR2VUWvXYIx4IQ2v6PVcZGZY81x0IQQr+R3f4ZVraGxSF+rjKAnlf3slgIDF3MN9PKFmXLr5+uTJ/LsrQQ8AOVASAYPnv/LDC+qIymUxnGr8D7HTkHny1f2d40KgOBDBhHxBiiKfiJyghgxp8YPPz65pPKpuLddP3hCtJEzH9XCdCUKoNufEQ+/htNx/+sbPzWZAKD+a0yzKYyDHwsjeekMppuZR/HBvxhYCxV2cf/PcYb49EfkPmVje63Rxi83JWNjiFAMP4BY8Dic9l4ZQwCeDifyaE4Y8jkyrjYKOmcoRiUi+dSqXGYF4hd7FcBhly5jNHQElbGABf2S4ZLN5Q7/WujUtCgUw5fJYtWBp184dm5lIHsRWSntMUw8JpvC4ZsK232XJbZ/1XeTCTqB25s+ZK+zXqg3NMy+8mIAERFdWZoaOkqA4Oh/V41hicRzNJ5VNXHydUMFgUon7iN04i1KiNIN56bk2hF413Pb6fL6QbAEHebEgxbJ8fIHmsEgzmVSQ21LddqNTfrlT3ms7WL6G2V73cCOaDqqx8v+T2mtr96mtWHRxaUjnbz2atiQ90rMPKbt1c0Yq3KAPfRVqZaLykcv5ey3c04DBnnhhhcyGoU6soEHcOcuaxh9GTQKzuLEcmd6BPEruqRtbAa0pa5MiLSK/OCACK9skgMQKyklmKWrozAgrmQOhQAw93dzjJ0cjd8Hb5TwEdHtYq/ebImZlEZDypTPK4Cwx1UX4uuTo2Zhpa4MoxXhnyinqZ8wrqV6fK5w72SDIAd7dSpgI6PN3e6282GcJ+Fa6Fm5LIgoDOrMrUty7JbGHPZXlXOnpYf3AC2mr560wu257KerBNvlSlBtUcWnssIEJXubflaMyI7NmoTWkbja5dnqxbxSVuJIy74cwzjA2RSZb82t7c7B1ugLZ96tn0WLa8JMLTwr9UTjZZ6JcOoLLya2O50uvm/K2NI4eSllSsDwHK1EDnLExzH3UgNUuX5OSQqviLE862UK6epXa4CYOjMqmznJBJp5I25LBqMRHaannNmxuuv1RIv93rZoLI9fXhO4m9zWaaVbOmVPVq4Mh2HmuskvDsHNUB6vbk5lRonCuROSVTqNW7tKIPKyLR7zGvj/GjuH5e5JSkbDgQFo1YvN13p5a4MMO4xjyQdY1RZzKmeWnouc7izMaW4161ldhONeCzDMNS6DzV3yF+Unj2xmPPELTFAOjOP/omMuWwnBuA8kapR5nfg8DQQcduVrXrBwFtlXLtNPVm5MpJeI8/Ovc0nkSs3D/afTxUY0pu+g4PEvpT1hIX0XG7kBA2Zv5IBIH/runLkUt2s2xPdFctcGQP9ysDQDStDL9CVrbySQaK4H4ncFITInUROIsGQm6GrhnqNkwsZ7rsn5vWH5y2eSWW05etkANF2PWbkDXWN2ZvsxJe5Mt1oJWNYGStef7Mn9Mr2rFoZwELTBANCMwiGgQULzQFAMMCaxjC1suTz6+Hh4bWkV1a+e73YL5ePMpVARADSQ7Kl0dCSVhZefTDex72t4DhabjRKHVfqULL42j8zRj5c5Fk8Wy4q/nJKt1Gj+EZK54+sZbIHjwUQcLyz56ah5auMAIgLf8pwFqf4nv61fOtcz4BxFYzINGKtymgsJcY/VMYMNrcyyIWi4VyDljcuHssCma0tDWBo+eKSz2U8HJ50Btp5sVgo5BUYtHxe0Ii1KtMxvsTmzmUGjBA+YpoCzEdlhHH8fpDo5wH0E68ugW7s+hPRx1uXLFMZvV2bpazs/WmdDGB0E06lMpr5a5ho2kaTLX2wjJWNg4EZ9CnLvLpkDipjhimV7c9bZYQ+mi4AvByVMUCfseAr5b6ubM5m+eWojGOKKeTSnFVGAITiVswQL8+ussBrfPq2boKmiJR/9vWYiWJ8+tYPNoJm8CRnV5nxKoepqydXPmXVnaWMypL16Q/OZnl15TOLsrOUumoGYxxXzfCDlQHPv1ZNoY+NKWZWWfy3Lvx72hqpFf/N76kLhzd/sjLv/vRHJhwOR5IrG9MenLD+CxqBWVWGAZoyeXslQtMG/OR6GRhkxtCAC9EVL00XdBTzzbYyxpQZleFfsNT+ZaYYVoZp+rn9y4BRszAQYXzfqa9XUnQ0xY+3ymiqH1OozITrDKOyaf+an6hsFNdYZfgTAZ//6NQNKpvouU8CCIax52jN3VkKZIJhZZOW//4CfQf4sd1YGG/44/doQuYfl4GY3/+HELj/6d9XNlcmqAzD8WEMjA2VefuXGcb3CWNCnwUyG6/s+2eO8U8YRMte2edM3VnqfW+CrTGZ/bu5DMYH549eXl68+Qw4e50WADh+XYVu6ecyArGjev3y0r5Oux1gRs175TC3MoekAWAISZEYYAbcr1eDWU1zTNrYrOYyiMZqNOWKPl4IFFOJNJjkYPTarkwHnbT/K5pKResnaxkwKoGKBpBplTnc15Fr6GJrjcj+OQBmzvnOYZAr9zwvlWUeAqHieiXlOiYpnAzHIHrRoGRXZgAQK60eFotrpWZql4GQGsqYeVyWfqgn2wDc+zut08Y1AwxRqccIuuNOEZLsIBhoAuZXRhmnax1QGslLoOorP3H1rJkmuzIdBpWljS+9qL9qbmUEYN3b820B4m6nyGAGwCQ5g5oQYDgEi9bjFWOizMx/jAkQaQ9GZdKl2gJwoXZrN+qlIMPSH/0TQFJp9Rg67SZ5p5FemQaY9eoSAmuXjwpQPQspkoYBebuxdnnohmMtJ+8myvtFwQy2fGXNJ6HlPakCGNlgcz+1k4dd2VhlaQCMo2hQNrUygs4d2WZgt+l0Bi+z6Evfnnm2UzdC2b6phZobraKw+FxG/cqSkd+NM1dLA+DwppLRU0F2ZX/MZQyg4K/HTa0MhvieE9DCqrNdSYRjDqEJXkt18tlIXbrfbDuKfq8mmNnSlaFf2aqrnIom9+6ZgWxnNZEG25X9OZcxcJ8o502szADgePMQcHcPJGjP3fhuq3UqKr4CicYf+5fNw1zWzGmZq1agUwO0XsqVbGXsuexdZbpCeadGoYCZlRHEy+M6cJUIEymRh9prOPwqNSIKydtOcegb7V9m5ceY40f/yHoCL0B1p75brxfs47IPldGueuI2+biMWbvZizOuNp0aX/t7QmiaqG08x8Ru2ZtpbCsx54HGMNAETK+M8XdlSil5AXETbcVC6oM2+LNlrwy6/nHZYHxOHVRR70xcyahVfidSjZzQLlOlhr/khuF8M+Us+RpSdiMsYqVUOKfRxMxflR1WFu9G13AcPaviqhPwAgywvV7293qZcB82E3Eic1dl7yPdbrfTE6RceiIXbvRVL3ul4KEbcivHWI84z5kmYX5lBID0tf9KoZB7UJ2KHIn2BEQ7upMF2F6VJbAxl11eHx161LoXQMjEuQwQUkySYhoATZIEGADDoTkykgBYE4BDkhw0IfPnMgKJxmqzXHb5nXlxHYjIYMgR9cKuTAedFP6lUxMPTwKMw2hFm+U5GcwY3jJwoI+tf34ZdLzV1h0VFIj8UR46jr+kobOPyxhwVI/au+21tMJg4Got7mCTKgMDjKHxS6Pv8zxUBoDwHjMM9vOY1jy/rI/Bb5nRzKBfGUBfAr3LjADwBGMJLHZl785XJQAEhs6U/cvwtiUY8Pa9wafhl1kZVTbplQBG40P/DhZ8LvtjPIBRd5O9O/7CGlQ2dztLfcb8yuZ8/zKT9Cubu52lPjGHlQFguzK7sg/syqy5g4HOrmyJj8uMylxBz/RtpOatMvQruzVjcLpJozIsbmd6ZZ+y6P5lZhhVZpawY4EjMyprBvWpZiKuFTW4MZlgec4qgy7u1EfGFJ4XXuC5DHplHsU9mVpwZXPSn5FLc1iZUNxmkYDFzew/7SwlHazsYSJz+BgTZrDMRhbfMX8lo1/Z4q9kQMcAfW2u3lzg35t9ZTSYy+zKfg6GfnD3zsElgBiji6b4vjIMEA0/Ef7waWXv/g5AwNw/W05f3fAW/GXA27kX78/6sdCeP2D8M/6+MmboeOyvz/2ZPzqQaf5/BOMtwcCWOez7o7KB0SUifDqXfb0ZIC9IZXPljxuJq+sYw9bZixG62HpbdxwDQFlvnKHLrlUdX1fG6Zd2++WpxmBkcgVtUeayuQKtELq5joEM0v42DOJ8yzHzyD5Uln5UAwG13KiCqV2uaNAdpe6kryvTNtRANNDsFJlRS0TcdmUzIFqPzgPfTYwMcrcBHbkjvwUrkoXmMgJzLrWzXvSe/HIqRKfqpQZdW735pjIpUX4trt8YeyrRVWpbtiszEwACkPbfxaSDvSuAgPuzXv+rlq6ysr/GlprL9MoigujcVb+fqLLNzXMg1lWvHXZlpgPB0I4+kdw9UBgAex9zxes4Qy5KV6HUwZrM1qosKIArn/98ksoy/croILkr/q5s/l9dMjeGc1ne9+B97hQZOnHofzhLdaqO172r9U31rJFnCz3G5KdUMCNELnqigHrqZUzodvuVke6LytJCxM9cecCojOzKTIQBqdUM+NOAgxmZhnpQ6PkPM/seRbT2rgRbZyWDjcrK4ZvnemKdjcp8kRPdXrL1XWW30YObxo7rUNiVmQ/MAJTKRuhys6XE27tHsjvYqaK6cyefNDJSKSIBYLZIZTAqU331ejN1p5BeWbRucH1bmXT7q1yvlwMHVbYrMx+YIXq3a5lMyF/0Bj0H1epZRfBT3VvdORS1bksAYAvNZblUJ53Ptx/VnnFc1kjndXf/4h7Td3R/X3SqD4pdmelgkD0dAdHzF409MzjnuxbK/m123bfG6b22sNBKxvC4TACOo8CZNHb0/31liXMAir9c5LGjf8CuzAzQKc917/Fup6GAmfCaDPb2Exda7/EchbrzxQ2QxSojxnrKr7yrDKBvHmOCEq41x7Ayg12ZSQA4tkqdjZO7LAx8GimddSqK47QhI/u82VAs9DwmD9fLIHqqJzNWWev7yrYAZMv+Y1ylPG4YGAa7MhNA53Dn87XMcOAVt1K9ygCK7GB257NsocpgVHZ2ns+/3Kq7GFbG2E1+P5f52/n7YiTpVOgqtfmy/pQrZKAju7LpQx8PP40w89g3LLVeVqgnmy5X9PZCAnZdocFcFr38blW2kzTeoqn8XANqiaSqK5/DYN9jmgD/iMFvp5exhSpjKEchXbsqAMR7eSYGrk7PBX9ZGT9VKqHQa1EDkFmrGHYVAGRXZoKxrgyMP89gtNxcxgABg0uGSc4v+8g+LjMH/hmhj0Emniv7/Z4/MBD+wKD3xeDjubIMxj8izPEZ2bYpVPa9TyujRdwlzzbzymhgkd+7xDbDytCvbAl2ybPNvLLFfz2m7UcfYwYz0mTkyMrtpD8Ta9iVLS+9spRzUuWVqHNCJZ9d2dKCvX+ZbeqgNP5q545tAISBIAj+yS3QABERJVAB/fdDQkRChIXsmW/hdeFuSxfnse7FlNKpOZK0Nm7Shj9Vuoop5VYfX0ts2bT6rMzgDTjeJKmkHnwZAAAAAADAxy7m5DgYZL7VDgAAAABJRU5ErkJggg==;" vertex="1" parent="1">
          <mxGeometry x="107" y="1200" width="613" height="513" as="geometry" />
        </mxCell>
        <mxCell id="LEEeaACFnw4oo15WlWu0-33" value="" style="shape=image;verticalLabelPosition=bottom;labelBackgroundColor=default;verticalAlign=top;aspect=fixed;imageAspect=0;image=data:image/png,iVBORw0KGgoAAAANSUhEUgAAA2EAAAIFCAMAAABswAX1AAAA9lBMVEX////m5ub8/PwBAQENDQ35+fno6OghISEKCgrY2Nirq6vj4+Pq6uqurq7MzMzt7e2zs7Pv7+84ODjV1dV2dnY+Pj7g4ODy8vJnZ2ceHh719fUaGhplZWVPT09vb2+oqKh6enrR0dHc3NxJSUnT09Nra2uJiYlzc3NDQ0OlpaUsLCzDw8MRERE7OzvIyMidnZ1NTU2/v7+Dg4NhYWFAQEAxMTGGhoY0NDR8fHxHR0e8vLyXl5eamppFRUW5ubmgoKBbW1teXl6AgIAlJSUTExNTU1NYWFi1tbWSkpKjo6POzs4jIyOwsLCMjIxVVVWPj4/FxcUpKSnyw9YyAAB0hElEQVR42uzWwQkDMRADQKH+i86lgJiDwIGSma9eMvauAwAAAAAAAAAAAAAAfKVpFvRyjCdqNEl7yCd6tMmpxEqPJzTZOIqm6fr7euspW2nSyyndGdwf/N0O643ZP1KkSQ/pxsBr2kONmR4PWLiVt6b/yrek7U+s4hd75tqUNhCG0YcHF4pQoggEtkBMKoJYuUNUlJsGCVAp///PNNDbTGdK7QVkbU8GEoZPZDlzdt6shcosxxagbpypQXetYUIVuD4N4vpMAdyzs1mEeBELIrBhrD2/GlwIrGF2rAZDE2sjpiX8ajCNrvMLsnesCB0Nm4SwXvnv07vPnj+21rCUXw32jJ8atpfefe796fWGaVd+RbiwsElIr2GVk90n/5OG5f33xd3HfrW3D2INhwl/5mTHMU2z8y4YxTo8w9JFBZj6Y0lskpVhXew+dX/sJ4bdBnafWvAJhsWx+xw8wbCcL7Dz+OqbNgxQyDDiR9Az7C12n+h0aRj/DcPiYscniiR4+up/w55mWGplGHf6WBlmvIiGzZ5s2LPf9TXHVgx7GQ0DUgo17AUYdnD/FMN2umAe5O8aRv7wGS03tUukkFLy86UgASGA5btahvG7MxTeJX5bE4pPF9y2YcQ6/ui//Tf8/VXDCIIkuAIeJBjRCPLrtxsybD/bHzy+1kHAymdCpLgZ+Qh9+F5yyZ8a9rNZ4l8yjJHQyUlIgmTy5MRHCutoef6LhmEbDaMHuk5/MKoECHHQGPTHGkBu0zD8MaRIevc/TA8wkBQkhbVamL/wY/jrhnkA0jwvayR9R/rq49wlwIglAC7ZjGH1xX65E+uQxJl9VxFkt3Sq8+GuJ6CQYeK9nXVuOxKiPMpmC0mELopONXVE1QwDiUraLRuxoUQ5dlp27bEAlDMsNCpmqyNTgPRlHiMkaw3nKhUSBLj9hnlAvxk1ciYQqiYm8Eg2ZgBke6BbEwECGzLMtoBsUZIiF8+MfICYL7pWMa/RA6oYJgtFHw8Wc2nax0J/KGOSdhno22HVDPNA5c4ECokw500LeiobAaGWYWD0oiIOc7EohXEbtMOgdD8w6VTDJLD1hoGE6GUmUpJy2ByFQcIclEmI8rU+n0uAGzXsrQRDTded1kBasXx7YXIJoIph8dsAteyjNms9ACQmQRfcT39QzDCQ+GRYrqjRTe8jlLiUVK1hwCTmEuclAwHnOBfzARAk2osTEuS2GwYQR9VO9EhCjgv1nCSJbqzv5C3t9LwdTNS1zRlWOpi4RZdkpRWNTuf0MO7etAnQQxnDClcRWs2CXrYbIQHATPfAh2lNMcPogV7QmBy8nQtohVK2lQlDOcOIyUWPNOwapaXX7TBJkDxthUBw+w0D+dByBtXX4qFxfnlDAKxM3ZpTsarm9cW1Jbgpw9r3TnZqSEAbNLTAKBshMLHffAoBFGpY68a4dKLUxq3WjblsmAGZKyUVMwwrw+6rj4uxRsiDRCx46QNVm3QsG5Y/cxvxAEAMv2zWfdl+AMBzzBKBsRPWL1PlvjHpd2WnfpMcHstAplIbhLt9DRucdNhmMpO1gHKwrQWGb84JmY8lHB1UqmHxab6xOCMgzuN3dpfmm8d6znlQbNLB1aty98F32YxS9GJjX6WVOVRulghM7GohcRsh+c0wvV6qPdssEadxKXPDTqnvBFPmrDezUgZNp3ZzGRgPBQlwQw2zLUQXY/L9u2Km0XzX1lkr9WZ3Bj2gzqQjfhXQGraGJQcX/YiZTvXcIxBUybCvkw6GS8ci0hzoEO1giKpNOojJhSuuSx1JwjPMBxLCKL2X5LM0zMMYXVeccuAkenp7dEggfFe4zhUOU+7hZd7c8KSD2Stda47K0cnEaVrhq0efVkhMCEKhhn1k70zUUsehAJwebLCkUArYYpWlVRZRiuzcggIygLKIvv/LTFJmnOUbwetEIM78wNeSKovm78neogTVUs/v2jATF8QOXgEAEiyG+TDDEOTKhkrPFMjKvjoClhLtckW2smXl9xgGIE+bHc2PJvuIYQhJy2TCBbp7fQUswcjmky1JX0bk+9xS/TrDHpoKQr15dTrKsLe4Cj7lR9cASjBtClVKZK312uBWilwDUlJp0z59Yh9fyB7nynyG0HR+BaFGode66Fri9YehGTUM3FF3fRbHCOClfK5zWpbrU631YOkmMGQLfCxLp3v0LpvswFcZ9vKkASJdO9LHvui9avRKBiSHM2IZlriQkJxpevfDdGGQvgR7/rQ+X4plmJ8D7R4GwJUXJF/nW/mpiYQrJSKwT/oyMn8MLfOx0DjNPRD1/GyQKCSie6mH+b9DWauG1jvgP/5I4mDY+3q/7a2Bt6ccxiXuxDBQXAshvWrIdig0VRHoVUJTBRw1RR9rz75iWbHoza7GdOgvBKhnrmx5oUU0HNXNl2g4FArPEAfgZw2D9xNgd7NX4B8G0AIXw77J/LDvMLb+5vMjfw9oHUKQ88f/z8D8fob9Z2ZgHvpagQD/zw9742HzDEwQaH4YEj6GwfeY47wbw4Aa5qHDZ8scZ5FmYH4Lw37ZfylRIMNq4cNnsLWl4xYdPrPRBwwbhw+f7NF2w7LyoS9iDACrHaw1dRwQg22GBQuHz/CGGQabcmY5IAbbDWunC4fPyQ4MO7vhTiBwfMOZ4++yImloc/FLv7jhDj2H3nDmaKthdwFB+PK2RCDcsRuBus2XeG7LOh2rE+6MAsfNWKwc40jzeFtbImDCHfq3ixO+9De3dADohRPuBANHZe6v+dWGcS8pA73hH4GcpnJFS2wZ02FijFV+sFfrBU6rDl+mp1v6wwAQfxKBhs75haPbDANd5Q3OBmKOyvPfvIsVSYHB+wXxXSCHCZE4ghOb+8OAe+4E9ERLQpi+NcdvcR1khm39b3A37IS3YYuNhn3N5cOgFiibiCHSiqRfEMQA+YZJXMEFatiW0Onfud0Q6gdOI5hIPFkbtutLkrIYhnZoGDC4rw+7Nozvq2427FAv0AewzTDMkHzWm+06qttiGOeuFwBYGyZxNuw4syWGfYlhJ9pOS4l/zAg86Bj2mf4w+IeQBJQN47hoKmdjtxhGqFCEbd4SPlxK3CkfMQz/5QyBPxbDEId6GLdSIiAAWZb9w8C2vyf8q7H1gHx2bNhb6fSdIehcZmAyLInoADImGviJ1xUNAMmajHZ0seMNhlGbcHUwnkyGffrMTkymNOH+eYEJeSzYB2eYK23AsSmXhr+j0C+mXNp2nG7JFsN2DjPs3QxjrSb1eu7eQqCv6vVzF+DyfEBTXAu2GcYBLoYBmBIhkgUMGZsIWApLWB+hIgCvsfXMIL1fT6UluZoc121f51qCvdX14NJSLAT7NIxBcPis5nmeLREpVD5L0h+clX8o6rSUNjaUEg/MMGqRtny9HY+HVemlnko9e9gZtlOpH31HJMMo1vjk5aVTugfzoTGtphs2ePPVy3W+nLdEMQzJ/dh4kOoQALAyJ11AoC6Hg4tHjKDbHg8mw6rFbQYmvRueM21HzIVrF1uIouW6lgUwW2L73NmFYNtaOsLzJ4xVlk0fBucxhebVbrAr1ZtVSRzD6IfXs6dVJa4QZ1B046EMURrPtt0q0dgsjmFADZuMASnFjmn8eJBRpNSXq6V7mpwfVUEYw5axF8MrZS0wVqVfWoCQ8nhpXL32EDyUZoZSaz/JvGIYezuVrIbst8hFD1Gcer3QseV7zx2McnG0gd2UEqXF6ErF9Di27zqL1wqWiFJv5EuPRBjDCL0TvTOasW/hxhKEVcicuwHBl+2cIRFhDEMA1oAa5hRbFp4U4+pj2wWPGgbglNOWMIatGgpb6RKjq1SvUQMKy4btJECtbQBAom1zq4dRo9LjXERGYFVSvk+zWDKazEqJilJPT1XYcz2MSDg8X0UitkF3Sn27lPP7iea/DOKSMIb5jlHDbI1+Tfuu/ELoVikOJaw0coY4MYxlBnNw4RiP5SpANXaXavZk5L1OAUCbjE1hDFs2HKQPBiZIjsMMWzdpx9KIGYYAXZ8+Aa96GCBZUpJpDclPKRfsRdSI3jmwTCpJV81NAaG9GsbA4dNYKpWOYyNZtI10rIol7NwFWpJIhlHMztmq3/eI1C+f5hYGVu7qkvp02lUFi2HD4OSieQ8IjFa7XY76hiFA2nlKGMNg1eyGlxcseyOj8SCvVaBlJd8wAKQ0l9yubuT7+zBR5dAkChDOdtxu2rIStVlKUW7jHPTiYNio5zgOkSLNc1V/OnrUJFyZlxvXLMIJZJjeuannchWDelNoB7u0lNhMpIutS0yEMQwo1iQl2e20iaRc6n6WbE7lKjMM1PGzMIbJq1H9/LVrIYqxjmEAzu0zAWjRGPa+YZ/oDwPwwvH7Yl9t3d4rEsuT1nAwy4xfnnKqd2LrG4Zw7MywxajPilnq41n7eXJxNDY0r5112wNHnBhG/JaOkWKZGt3Hpjspec5d+fExrEkCtXQAffj1sKughzK/eAiRk7pZLU3poVm7Kwtj2LJoWK22+2YYIEQGxUsAqMWYYZFgj189TMk+p5aaXYxNnlc6TdKz9fFkaq0eTeV2WIX9GyaFRyHN1DUyaS+m0+nkzNVzQRc/jK6wMIat62HzGZYIwVQqXCmFjeIQq1io/rA3w5STB/PpiIpltHOWV/JYC3SbiNOWyFo6lNIDgF9KZJ/b7JSmAAhavkC9pou41cPW1xMFiyKvn8tsR6YPtrP3/jBWD6uvlqvp4rUmqZKameczwZYkKRfFS+EMU+nXiWQUHM9duE5xyNwSKYZRWCkRwKo1balTXHWTwwh483SvVxi6wvQ40xh2wtoSWZVLVk5qlgxmrRllArB6mGVFm0uLUwx7G2UOf7vWLbwJuN8YRujNzWc7nYdQteXn33g3E83P6JHoaiaYYUfDXDJXdevD3HMqzNoS10fEqYexbCEvwgAo3jXArLRaKwWAdPP5fAUDEsowgMVpFNzO+VksnZGrwXm6UKg50Do7L6SfHzV+6yWC/1hvfktBf3p6CD3OkqqpqoYlDTPfJBVjjf00VsWph/lEFplMJmTjWSgTimDJqL4wtYQqJcJblvhjXCLQJLrdNvL3kAwDI2IiMF0CxJt691MbyLVHayCeBgbbxmXYuF6icPiGEenDHPTIX/L+Z9IY2N9idhZQPzt7ZTv8DdsOCGPYYa9I+gbvGEY4zw8r7yOG/dy3OFzDtJ/uCBUphn0WENowss6c5J3bn4+8QQ7OMCz9lGMH29LxGcPEqYd9HhDWsLSOKSo32Dodh1ZKFMkwnW3/j2F/A0Bcw35Uuj2eVFL7MCw40zSVI5q7p1LiayXDl8TRdzAMIViKatjxEWeO99HScVQvpLkyvNmPYQH+/469GHZWyHKmGBDRMHU4H32Mm8Bx8GPc7N6wyq/snQlb4jgch5M/NjMllXK2WDmkCnKsyCGHgFwOCKyg8/2/zCatLOqObmEPUuw79CDDM8/U8po0TX71/Qfso5XYvHfIqc934vCT+zCs7eO4LpH0XwYYknbhkLqv8VxyQjlhJZL+fwBAMOyIVit87/MVG04oft9HHYYvHPJ0dBq8cER3H63EHvthOzslJ76jBj8zDj7pSsPA6WdR1BcmBDvgf+/pAATOSft+CyiOezoEfVoCAPIfncji9nQgK6Hnb+GfavpilO/A57izt35Lw1pi3nEGtM1h+H0/AipxgGWYoE/82cqwx70Y5mhQkjXe93sMC5NIuiv/PO4VEFh1mJCGAaDtDCPi3nF2zLHYhjn6cvHPMMOusIOPuvJ+GGw19vG1YULNcYatPOCGKU4TSYU1TPhWosMgRrAN+0/uOMMvCyXj1Uj7/wfYwrB3OR6b0emU7+zDsI1luxqmEGJnG7+U0o1hfiQqfxoGgWa73QwACj2O20vVGHQAoDzDCKnXAdjPmA7npwReDJOq7XZ7SQCBOn9SEQqlx+2BAf2CBGDOFoCMx6C0g2F8gRB3SlKwIvF3pYGVSKpLCER77Od7w0rTbAZjrZstK1iLtrV3dZiobAyzZCJmRDbZnilfRExM6WvDjsQ1DP1pWO/3WTo7kVH3/Hpw08SrlYRC0dMOQuXwAyCAF8OExboOM9qN7qCeomCmvv2UEeqn5s3W3HhqmQDz05wEuHK22wxMRAY3HQC1O1xdKtz6ZttgpTyR1DQE68h6ZRhli8bu3Fyzgv5JCpPZ/Ry70DCMaX9yXomXSfXuKnmer1qCucywBkaR8BwmlwbMbrWnsIbM89MnQN0rigCQCwy7YoZVCDzf9415tn0lIxRSwIgmcek+CEbqx1RHmfAx2smwUPT2boGMZT1AsWQnkiJG5kmJxCkSC9uwtWJEHqYmQ8r2syeli9iE1wMuNGyRHwbkbhD3G7mLxfCqSjB2mWHXzLBOowPxiqxkE0o53Ifq7XSkQyquu8iwpAL+VhlCSiEmA/DyXJLSZE7SJvW8DP5bmRt2tbVh6uM8TqCU7NMQbBJJjZdEUqGqsI1htkr9cLpdLBNMquFpuxXkxdRlhlGMgyzRjfA4/lZXUaqnM5UVUncZ9i2RHT4ZaDG5m6YiQCtNo1sfNDQ12ZVc0kpkho3v4wmWUAMgFa4iYMVhJ9uGNF7h6uQ4NpfaidC6Dts29HeWlaSn4mgYNREj0Ir761Ec7cmj1DEWtpXIOQuX0z97hGnVOz2tWXq5zTAer1qclLDCDZthJXC6VDF2m2E/B7PGHFCmUizelCSjOSSpsRzrBO46gFxjWDs8YFm/ACClYxHEMJ5iC4SCscD10KyfqauZsaNhoegS6amUuagMIsEH+pCPwDJuxp+V7KMk7nUYQ87XqRzmqW4kcPIjrTDF3HgdRnLFYrNKyUOrS7R2q0+o23o6rhtUyt6q+nQkm4l8BvXDDxV/qD7u1SkCd7QSY1Yrka5SOiApfcUNg+PYAHhgXTfVNrqrh7syMMN82z8/DNF4HympAsLTwgNLJJ2lDP2yGUjKkXNZrJ7Ed4aR+f0Ma4nig0LMbKM1lAl2pWEY97M/G2ncb1TOsre9/c8P28Uw1G+VMuEgoEwxjczYcHVhzFqVsYQYbjGsokAhvEDADJNZYac1MwAQJJLnx+zNakXQLnUYGGr1rmSolzncG8mSYeiJkfYwqaazpJM3DRC4DtOyv90Nh62jWki9PpkXfn+imLiulUjZQjB9uMnL/cZo1u0IMANzO8MAoFekoJ1HtdsoJV1WhxnZ0zMFFif3QeQWw+y+RBT5OQMD98LlEGTCcU1RDIDu77cm0MqPpbGbYZlsMjZ9kDrDaUIGRmgcn446Rreny9N6SWDDSKkV7/f7x7Fb8yJ2rtFR45m4r7ee2qFZobNipN/qhVQR5jhvaRiC4ylBxnUcl4er6SogIUjfPErImNapiwyTuikVGWdj/XF4HpvUcCE8GTIDEApMzgwET7HnnTJ/ETI0UzNDIFETI2BIKjE1CVSrSBdLsLeGPf041omC2yfHOf6EsWAjS11nGGWvahCrcjJpsp4OKkSKwFaGASDQsWStJGyaFBi6ZiAEmEguMgxCBABUBVSTGUGlkGYydEAGVgFQiBq7PqHPWgCBhV24LmWIVYm9aSU+diNctPKyU5ibGNNB14VjOphTD6t69nZYJv1wl1IXGgaIsdnYC7JXLjIM2f/1P714M+zJ/rvdcutf3Nr4xP/NtWpi+fXOMEzsNeEvjit7OijG1cFgsCBYDgbYW7cZhtAbwRC8Coze/8jfLQxbS/X218Om6gFwb16iQ8A2TMj5YdsA7/sSlXVEqatmYCLkgrH1WxgGcLiJpA4BsAwTNpHUIWAZ5v45zi+GiZuXuK1hjENNc3PKYRi2biWKm5foGfZFDbNbiXrICfrZARnm1WHO2f2OMwAcbCLpNq3E+17XCb2K4IYtnOR0KIKnCPiPfizTf0+hkL48Et0wKjnByLkua2pbw3zfneETu6fje8JRdmn9SHDDnJ8OwQ07SbWd4NJE0m2uw76fME5PT6wNg+0dsUL7/avNkdiGOYbldAgKIBQsnnz7Cz98vtNvvJytTviW7/wQ1zBg1A44kXRbwxrl8jMLJS0Hu/2SxXO57iuWrdLn6rW/xLbsVU6IaxhC1RvH3HZE7UoEhEKZReYvsJhSv1XOVgu+5TszYVuJAOw1yN/8lW++334yo37m81dHJ7Gbq+++o6ub3w/aMKunQyGEYIUuW37M9whRLn0tVSEMtXOe0OxCNSrudRiAoTjHENWw9f3l9xz/9i2DwD+bpQ2E57O0AiD0/TD44ISQmi8/K9anWdPM3UU1HBwlzv24dtCGrXvrKVYC2VHUtEdEKClfyx7NQcfxSpVtBL/jvEW2lsD9iAgA0IeGSTeJ5WSut1NPo64htGFcMPjg4uxultIzyRJJ15qqtKCoFlUPui/RrsMwhxSGfnbk1JKJG8b9Iov6dTRnaUeVS4ENA/Zy/EfYG84fJOoyw06YYZWOMbvE07neHOs8kVRYw6yDgF/83CVu2DDgH8pI6tVUXjLOhQ7aMIC1YUS7rGnxJvNqbRjBlCrpoZyuyJgKPi5xq+GeouXpvftmfliH3Z0VUn4jPRoPF2KnCADjo/DRfPfn9O4RQOoywwA69YC0o2GvRhRLgp7PN2M6yKI1uQznI68Nw5imGtHRtwERv5UIjj8nrF8fp33ahuVHw5EK/vFltiOJfcf5g+PgdVh+FjdrWcOqwxBk6mk7kXQXi0ORCOFbZOTKfKsogk1bsbENYwbNbmbd3FWPrA1T+DYQi3a705Es+sjfA8c2rFKlycfItC/N65rYhjE+NOwpEVpUSsZFLbXQS5NZRjZ2NExZTiqXFBjmsISYZ+OloSpIPKK8uqJYiw6IokVrdGMY4zErK6p/VPYM2yv2ddht0OjGy5VZaRzHCFxpGGslXo91vTnXVjexRGYWTk6ydEfDekNNSxYAEPSHsgRIn3fUXFfMOgxzqL1+axil6yIq9HXYgWMbNssgktP62XpURi41rMnCR+2JkxLD3ux6HdZMhJ6TZS7b/DyaLUh0bi4bd3MdicbLdRhdW7Yx7BVcNK8O2xe2YUgCBAaAoRuAhO7p+NQwiizDXk1K3tGwQD6crEqAkFErXvfy5f6EpsPpjHhfUW4YeWXS+zrMLqJeK3F/2NdhDFgjdl/i54ZtjuAfPQNTWZ6n7tLKg79KEzVDXnX8UeiPMBKPdStx49PGsI14Xh22TzaG8QXckKr9qWHIXpC93ckwYzbCxmx6kYv2AvUAqiYDtR48NXVBr8M2YVNv6zDKC6gLUgQOnNeGIUCurcOAG/ZyGLZeOxumn8WxWY9KbLdTDGrZVGRalbI5IqhhHKpRirV3dRgvJa5Iwjlo1oZtvpju7OmA3IthYChWnhvsfB0GmcRkNabA6NfjkzG9iJvQrSzF6+hYj0skF9Mq0Wrdt4Yp1VTJM2zvrA2T5HJZkxACl/YlvhiGQO/lV9OgBLsbhkDRNB04hoo1na0BdCpoHUa4VJmrjmJma+SNYaQ/7XiG7Z21YWZlmqiXAYH4KQKfGxbKtc3BREX/pC8ROHy7GUMl7JgOy5/M1YMmZ3NvDVM6w47iGbZfNobJd5lQdimByw0D0Jc5Mp+GYHfDAF4W8edNrOuwi/vb6aTRVN4bVvXqsL3zZx12+1CeFgCB+HmJnxqG9GV4dHcW4orsnoQD70abiurY+josE56Xq/UmsWR6bZji3Q/bM/YdZ4aZr0xvj91rmH3HmaEvzyKdVQcBfJFEUsJbibGOSlPMMLo2jO/0WSuR8j0qeF7iQWMZBoDk2wsjnVT4LrjWMEAI9OXS0BJpBAef5oZg09OR7xAtleP7lBtmq9bJV+pj2donIs/APGx4K9E2bKEfTxUumHsNQ8ANiyXqlxp8gbxExA0LhXjKewCrSkRWOSGW06GrHPzcfyhhtqOoYieSHjRrw3B2OhpVuV/gyt562zAG4FK1hOErGGYlkhYKc0aarQvWUkgnfb+zt4U522UvXsT+fuUZthe4YT9mj4zjQq83OD5+tDgTNmvq85hSeIf0dMhJOABw6XNOyzNsD3DDfL/ixG2GsTrsNB6NRi+jr7iMHbRhCJ0dOefGM2wvPJ4c/YriArkLqfZBIqmJDpgQdYyQY1K+AgamvwK77RcezG9iV1dXsffERZx08i8B22Q0CZuC9hUR7WnFTgCdWP3W71HddiDbnqfDPaWHi3DPA3eCuEmVjtg9aND7AbkPdxr2l6RSsdP1/t9fKSDoyOUvCiDhnrnvXWl8HEbtDBByXOXXxTsXHh4eHh4eHh4eHh4eHh4eHh4eHh4eHh4eHh4eHh4eHh4eHh4eHh4eHp/zhQdwAuMQJre443/p4Gx8dojw5Yaxf4RrZsjA53PJwCUzEz6fheOWOSHAQJ8fhTu+VX+wdy5qiRtRAD457GQNE4hATHAEhMidco1cBISA5arc3v9lOoG12varpS0I0/qvSYasH+tAfs/MyXD2T/m/fuwT/xvdED/EIXzEVwR7DyJRQiKQTIakD39tWiEB4L0IkQ+7QcToB98s/CgSIxOiIxyLwHExrm8EIY7w55h3N2JwbSB8QKByIwhX5MMhhRK8EYM7A44JgnXhufgmAB5P6qN5WCAoRDf4i219aJh2JUQ/eEfyHxjGCX0XoiMXx6+XaH3zDH0CUPfEPoxhRY/jO3+GngsDPiJw5Rn5BGDgGvYRoWdPzHf2eO3j1/zlhrVBAB7/0rAanD+TPQzTQQDSnjz+lWEzOHtwcfEZhvVAAPYwTID81f/KsD6cPZj+MuzLsLPky7Avw86SL8POCfwy7Muwc+U/Ydi/i2H4dn+d4e4RHtMw7NWGw0aJAILZrg1rVbPXkAHQNzP5XhjD0NQ0zUR8bQAiC/CWkIaxbms4XFHkrVxreKsJadj25UdwQZNsr2dNC/DDSWIYcgCIqprIMRm4j62usf25CG6/4UiGkdh1PxfL9hDYItrNlSOTydOKobWJb38KUQyT4s5g0LIQ5fh4MNAtBHPKG2MFxTIMgRMIPuRmjxEDzNWys3hcMRTQsNySvyNVxltYCl8CojmzB4M1unx6DNutuLQay+WKAWnnVwiIcJuiCKAMeswyEY5nWB3RqNgamTUnBAnV2CLfVlNZBUQyTKlnkv5BkaLVjCVK9sgCdTlaJ/RiWyzDtgSKGcDq9zL0rmfI0k9JRNEMQ8jU24lucwqgdYMXC0AspUvJeLMHCPjpMWwrmJbSQ5aMqNjPXfcUpuMEAY2pQlMWIBzLsEydgBYZaFIlZW5/eLTyKe9mRnCLKIY1V4CTzSU3rIF4+fwCmhMLgLSJoVCG4e7JMgCJpy50NmuuWv1FSMOuKAQeowizeuNpBYAsgJDYDAFOEMNcn0jf8UsmopRp2dxzhEBq3MpUSel2Hv4emSPisQzLU6l31SHJTQd/UM7nBwwENCzfRivYQK5ajxsW1oAUB2IZ9uPJUlRqNP0w+95G9Dc7DFE4w/QiN+zOQZxXk/XVj3FaNV92WyeYhwEEIsGBswiwtN4bKMAxopVZxjFWupWyvfR4huk3zvi+o0LppoyI4G5K9uccgvtHnFFiUE/MY3cyWMFYYj0YSdywVAASm4ZYhv2IYRunEu0R8Ddj/nnteiqcYQigN9uJ2WMfeVPhhgGimizZYwvwRLlEazQ1Lu/9vpSSG6hWb2KVKj30jpKNXKDVZ3A8w2J5y38VMblhXeAgp5/f2CZviTQPCzadq2UCuWF1xwnaBmpO5dY3iFiCzcMQ3SeLGLl6H5FUI85AD+aIcKNEAP3nUeXpxYRXw4BMIuOHKQWE08SwhO0HLtVdpREtTgrDeNtnaziNKIOCMS4hIhwx0wG3+UtQgjXcCWYV47nNLfK2ONl6JZg2J/kyohUcmub8PhbQnHpM7wQEy9bjzrAMEDtLAZCZZjtYEG8eBqAHFcUZUEBEJe8ahsTtS4wgwklyicr40ojrhq+/eoitCWMk/ZDwR3PrqOHPlkwEPGamw3gIm2Yrm0BAk5l6cC6Hs0kEkQxrLoCl6hpazRoC6kFDc1ISI0LeD9O4YdB7ygECohZfysJl6xFAv6JY3XTxh2HIAWCRoHqaeRgiKy+XcYoAtBbaPY6Mnb55GdckZzwBPJphqQ0BtsqvwXIqvvZk2PM9dRkmnmOmUNn6Zhp4CtFH3FwiaM6dtM10IIBY8zBA17BmCoA+OKpZardrdwUUMoYVKZgPUbYdJU4BwKAIWvQhAHCK+2Ec07A0t0lUgu7RVC2D8T1ByQocMVvfzxDApF1ANBq2Hb6VyykNgU3jslDzsHpje1FqVjBa7sezXqItIxogChjDkMXLfHcbp3Ro2/qcIAqW6UBAyBQNwNVTCZVZ43rc95O+3e3Hoz48US4R8dW0H4rvmu5u9wV4tHWJr//S2y/RXVukbL02KyGS6kwL5BqNxmIOwC7bDBAFi2H46xsPnN0OBYxhiNWciWB0QuBPN9KNRpWo/VptoQB+/jzsVSd8p9W7F3p3BDyaYbunf3X5bY3JYS7P7KcY9nYlIuD7l07AedjvDeP7z45heJhOwOt19MauOwKsrUdh1tZ/aBiKs7b+239jbX1jH8POv6gbaXx9emUHwuN/wTD8j3x6BV3DyH/CsCPX6UD8b9TpQBTDsP/I58MQIc0NE79OB5LFkQ0DRG5YXxGA4l/GsIxy/pT3GCVGFAHQ9zBsoZw9If34holTL/HDGBYoCtGNbb1E/LheouebAFz8tWECvCEXFxefYpggfDxKDHrE4MJA+ACt6BGEvzZMDI6e6WCTy0OTa3oqt7nc7eHI3XrzH2fryfry0LwsPfk+/6cPiDe+nYd9Zj84vB/eywNj/5VhZvXy4PDr6vD94IYJh/rgiWkHht27hn0qJO7JStpBMb2uYZ9N3HNvwmHZ3Q/7bCqeFBwWXF2IaJj86EnJ0mHRrj7fMN1zbxy4F7enMEz3XAX4QXzD7t4bdvJaU3+PL8O+DPsyTBi+DPsy7Adnbhj+Vw1TNU1T5R8tme/dpqx+GfYrX4adcwxDZjIEJO7ehfgURH4g+1XnOb5h1Zqu6/Eel6ow1PUyLQxLskQvp0khDaPvG7Iki2ZYaFEbDicEAelimE4gmC/8xLDAUBjDEJlp/nq5b4/Idide/+agMSyp23YItW7EuSS7Ujg9RGCdGQuYuIdjxzZMXt3o006nINPu43A6tTvVzcCSS0VHEcowaxh1HCemqKuK44xvDYl2omNn2RXMMMzdtMqtYNnEuRPrpO4KSCv3nfLwoaWJYhiiHHMidjyJiCB3UhYAhuK2rVuARtyJROyJhni4GIbdSbWSJutyIXMvASBUB0kEMFsz1u2dhWHTfFVVZUmuNnVJVRN+efjdq8afXgQaJVJuWOXxst2rUtXeeHv8ElVpJn9bbW26VCzDbjd+YJmgYsaKFlrFlEmjMQYs15wyUQwDY5PyV52oAWilnvNzALPc8feK4QAkmq1SqZPVNTxgDEMMVcrIKT9Q16i+0+kWiFw1yvepEoM9OLphbZkfjPCVX5aoJEvzSnRWb1GBDJOobEUdwx0UqpGioipNJ0D1YkizlllFPMNw0VRoJRIANrwzuGEmYiB2bwliGICRTwP2nn2gRu1Yfo6IBIGk8wmYB/sIONl0DhnD+rHUVEUE1dFdn0jjKRMbKW071Mq32udhWFVTeRB4HEuUSu7mu95k/TIVxzDqGjbe/q0aaSqyEhxoUiaYkKVUMCkLZ5hxF9bkqKMhmV4l6ChmApJcs4DiGNYArD5PwPTS7oYbBhymX1ncsDJBkJcD9XAxDOeTxtIClFphyhJ+RYrETaXSnqXIZUSDPTi+YddXlYpOlbot7VDpo2chi5OtpzvDKu1CQZHkcH5SaNS9Ks0UlYD/3jbEimHem+woqEvIpvW+v5pt+ncxDNr1tkCGxfyl8FgCBOjm565elj8X7BBIcMMAWO1KOVAVAdhSqPtBbdkGWjGnkUxVoTRaLxrmKm0CnMM8bNNfF/ySshm7wcA98/J8HZ3zB4IY5sIN+14ZjX2SGv7pbnRfn0hUz3e8qXpbFsywp9vS8o4CaunROBJ+VNwYhogv9apAhtXHxWgIOdDduIapaaeybL8aRhZF5SAxDBGBrmU1vTSsWEwJECSMVIttuRVTIpdyZGYiwkcc3zC6m4dJ/GAsHxX+bfzL/2B7N7pA8zDKN3eUKL+OEg27XpD0azs89IuVS0S83ZTAX18xREKYGR+rEjcMwIxnDYHmYTXWq3cQdoa5R8ICrXwbf8SweNY60DwMUerYjlMNNG6ikZgfEMDXjDh2Ijmaa7HHMvkwiB3fMMo31Z2HufeXu099fqRGoHXdllL5njiGcd4ZFlQk6famL+nFpCrLVBzDEAG2hrHMlYWAgInHLuGGMYDSfZoIYhhu52FmqkjfDANOop5miaJ7zUuVlHmYeRgioDr3G0iMhN8/19wTmhHyU2QWQ8lvnDpbT6lE5dVTpz3pzaVQLNjpTWrTySZFZX9xZIliGN0Z5lBNliU5ErRUKf39Us4Ek+quk4IYBsi5fSoBtDc5Ivn9PScWQBodF/wvy4wqyv0wcA3b1pHFH/MwJJYJ2NuUyTw4Q2DTYvtAFUnhrSgicl4f7Jx2t3MYJUq+gTMYDGayZHTGg8Ew5LUL/Hw3VRLFsC3WXXMxXXUs1b5uTBtB3aKxZoJ3UKBRIrrbOmYBqPEZa6fC4b4MqE0HkbDt08RZ0wHWZugGKkdmk65z0/JKarjV7YxiFBLNQbfbcmYMDjMP+6EQ4q+Gva+ayMGT33GmEt3tKZXk3aPdlyyJlK3nX/04p6HI3ngrHi9Tmb50LLHWJSIiIGHIYQxJIBAgCLxtblvCGIaoddf80Ctr5m2t0ah1DOJf1Gp9GVGeNWq1tEEQDjUP49urZm+y/bqHs1iXSN+5Rt9OCpVLpO6qZReJbo+qxE+oEkegeRjAW/HVdxVYd48EMux9xevfVyvF1/1hYtjbc+OfPe8nxTBV+hvQc/70Cj3w2noLPhtumLZvieD/2dp60hCyisA2hlEqHRD5VIZRevBPr+zRjRMYhn9nhIOnMwy/DNsaFlOlwxI4iWFZKh0UzXuqUSLuJQ4L7EvtPxHDkAj7Ccxx9cCsm6cwrDmpHpRC+jSGNaulvRgG9+XarTX1yXDDlqUDExM1hn27PjDfLzypzzYs47m4PjA/n2SUyPvxfS++efbmNIZ9+35gfhLTsMq3feHv1L7feYIY9tPeBXD3rW97cQrD4t84+3Zk3+88xSgxeoR+CGkYK/j2JFf3PJT3or/5dMMw4duTjOdbur9XLzKnGCUmfPsy9jzn3h55vT7vK/wR/7M76eKcwrB9ryuv49mU9/xOIQ3bH5PPXQPnWpF0f3yenxOB861Iuj9DT5DAh+Bbtv5s3w73PvKVBPuACyEzHftjPnjC8rlWc9sfr+dnv3q+tab+lmHs7e4t394Db8dzN6zBDfsv10v8Mkx4w/6gF25P7jj/GPZl2Jdh58nOsPeLXF3wdUN0j18x7Pec8f/1+UfDZFl297umoIbJLr82RDQM/S9eb5UBam3fpYFaVUVk6zkBkKoBREFiGCIh+M4AJL/7v+PxH95xfnsGwLeKpDvO6lXBd4bR3fai6/qLerlwi1D1p5SfE88wpcM7sVAkyVjxxiokoGFk0NQzla6ptka6Y9PEJgdgZaMqYP9eARAghhUlIL10rTbT3O7Mbk0Ac1arTRibtAlAsmwAsJcq+0eGEavRZYhWw44UXIeNURsRWXfGTBPxrCT7XQxTWqN0OT2Y+L7HJfmyHqdCxrBSMNqZPtqKrOSz5c7d0i+LZ9h4wFinGXpp9lgi25ceMwQmm3wSzZitgQgxjBtm2ve58ljXwJ+6eeDCleO59NUtad1bAMOf+u7vjM4/MgwLo6cGASPSqlYlV6iqrQCgOZyxbvus/Pp9DJOn9ZwakEshKXK9lpymX8xRYqk4VLXOU0618mFm5r5Pee9EM8yxETrN5LQiAQtntFpFhumyPkNa6RAhRomuYZEwYj8fIqtwqiIhWjKYyxS5fCoAGX3TEXrFKv4jw7ydlA9JI24wBOT0nU55TeSq1c+6FUnPid/GMOV+bOw+jNmuh2f5FW+LaViLqt78TLbqkYBcKA6peDHMuep27C67bRaYbA9kXz1BImknzEpXaxTHsAgzG1mKWmDlGoaMKQ8LIl11kD4OKgZOl/I/zHQkwyUwRpVMZo0AQGobPRYN9QbJVn5YPSfD8LeGydXmQtqhrq7zA0XQXGKpqCtK6qrkGmYGXp47KhXPsGYtujSARu4y8StbVbJeIzop30n9qIooQi5xa1g9E460EQEXFQrAyplohAKObdJb+prtQCRO/qFhk7EBhfvVZcyWqCGrkYyWqFRzKfJiq2eWVvxtDPPVO69hK5n/1lUlQedhxXw0+hQOqUrdUUrjR79MxRslDti82SFIJ5P2IBZgqVQvqpSyVb1GxLjjvDXs7lLPJhBwZxjxTzqjBcPplbnQrVHHqsyA/LNMRzfFwBdRcTb2Z5xGIlWF9XKdTpuLxTlFMAD8vWH51Y9rkU6fnweKsIalSv5ZMCMp+edlNKaImEscD5DoIxU4VrSM0C+mwgHjLvzQE+SO8zbTEQZarCFncScBIABZbAwoNb1OGVu2707Bv22Y6ytR4wuCLzZV7SGTJbVwVTBrYSXskyNeds4xTPY3M65d2/FirPPUFXaU2JJUugwqVt42LEMW1DC43RSQsMDwQQEI5fN9ZK3rooFijBKvXMMiiMN7Gd0YJu3ul/vyCtDl8qEE/bpta/+oEo7ZHdQfpxpNLZ04RQB4KYYdOxQaJwL6XZmcUzLx9zFMTgULqiorhjGozyWnPldFzHTIPJcoaUa0qLiZDirkmg4STiFY0amhR5xxAQBYtJ4AmGxipkiGDRAn3y9RVuL3JUnNVZW5PTCBdb6NVUgGn7sM/4FhSJTCeh0iaBVKKnJAVhIFC0yFobFW8LyC2HvDOIXs+KU6ib1c3gxl1bfRDSHvOJeadns9bcZla2MHKBXRMLQsBGIZpr+w5i1EVBIMMDA3xFmXiKauI1B7xTpRPjNuyLejaEVXELCwGRIMpIp+5IZ5/v4o8f0ykfeLOxDPbQHV7+6HcZT0aDnq0k48yc80YkmJihbDfmHvXNvThKEAHA4lG4ZKrQqMegO1buukXlZ1s1u1z7Csm2v3///MAplFe9ms+0DCeH2E07AP6wNvTxLCgUi4VfJ9f7ZPsFsLdDFz2HplzXjdLwJ2hYmwpiNcNaUogIBuFDsEgG6U6LCtAIQHaPjMSjgACCjx/sGSaL5zmIQlYhjSCiLgTAcJP8SgvwWmeyLqyl+IiK8oBHcgIe6HlaX4cg+/sRFxHexd6yWGxCqt/Ug//BpG2JddknGLeL3E2Coi8tr6TbvWMhhCQqyaoobFfbb4/73Kxas8tMtMB4PHhb5b5DBC2C7FT6/scWsYADPskQOcVCR9lmEAWzigjNL/fFhbw2uwp1dYsI5W4NcwiAzD0hZoHBsGsWHwyLGHhimIV6L7Ydt010DQiqTPMqxCjE1c4zGkLq+GQWTYtY63oJALq2rzCSCAS3msmVsx4NywrE7HnWFfzt6ucbYebBzY49UwSk5+l7s92QJvye84jOWwl2fjrTji3LDxSfHvOC2nk/4ctjXcGhbmMPloO8KKpJz+GggANfiuSPoMw14evfo79ITspd+wcekeja4cN8atr/g1DPb3tucdt4YhQP3LR3gtH00eNH7i27B3T5QpfUehYbShoagVSZ8301EIKw2amnPtFsKwYJZk2QoD2mpcO4T7eomASG579vlafb3FzPNIHgNSiFrECNmqqgswl6ju5x5Qn8s/p9NgWqfx6Ve6mQantDH9hlkYS0RyR82q5UkhuCbLFRxN2TtWszdw+Z+tTzcD+cxG7qL6w1LNC/9HyeDesKfKSr1+U14sprZ5NbwxwanMZp6g7155pmFEwtJx79bI7ePYsDBwKp2ieuFpJDMsQZhhju/o7YHn57X21OZ91dRTt74+BRXppOcZo85Atz/n9U5D/x8MC11Se4EuSWQzh2kHn/q6RIMshyVHbFjLtJYfe659XtLFNIzmsMDC/eo1mOcDHWxb7wTm/2CYRqVqNb9jZtJaDtNyzRZrJZlhycEMK5abvUuiDfxF19KF7CXSHPZ6+q1arStImQ50ZHZ8y7PTbRjc5bBita4RSds0TM/1HIz1LIclDMth1c8XVRX0ltO5NIU1LJjfWhMA5ZwapqhOMCQ7G2bqBbbW0bmyw73NZUnSyLAwTZHGzJH6V5uG4fxiZLjf8zgbhyVH3EssKpWlbepe84D7JzCfHIfdWOZtzwE9uCTmd1evL9ydDAMA0pkN84Aoy1JomDNQQQHgzDC4M0zyrOai8nHdMAq58qs/Jq3MsGRhhi1UlJvlL2cflgXu19Y/ncPapt4+JcPuuO0Ei7n/1dzRMGwtndGQIEAwDIA29TuGd4k5ewAznukgkuae9PP3xmFEwtcnJ2oYkcywxGCGKZINtmGq16rNfxWBpwzrFrECmma3ikXVtlXHVXadrXc+5JXjhk4j3R+cv8GQ99TaeGoAZ0W1V7P11CGMNY2sG8ZiXcPZTEeyMMMQ3D02L7BhZP2xZEQ/uxqGG4thpxhGxbE/6t1opanX8wOXt25i3EskzK57hpHoS8lyWGIww+IH6EWohPMHwyIQMHY2DFSrfNYp4FbL/Fz+CMdttdTXS195K9MRG8b0YvvYsFU7yQxLjjiHsctHiHdg/sEwBDE7vz8MjMpUyjcPcrNZ/rxt2p2RN3eNhYdC+OomRuMwBrmfw1apjWSrphIkNgzoF4nxDsw/9xIjBXY1jHHS9NDt675dKGi1ju01r3JD+7bH44219SoC9w0j4lQRSDeb4zAQ4M0QD2Eydcn6MAkQ7JrDtEbVGk5NGpGJP59PpeUIiuVKHnHHyjBycYq1/k3rXg67CtTMsMSJDKPgWsWamuIbZl8NK508oH/oJYL08WOe3WiWWjRSDAnZ+T5G3BEaFvUGSzVNqy88LTYsjM6HTmZY4qzGYe74NOd/FqGa2x8MA0DmyPo8mBdouLthce3EVVbnbZo+Noylq0ZJ0/fnHt6cSzy1MsOSZ5XD3KZDKjnhDQPz5sY+qOoI7WwYiktIIriDs0qJ93qJpW6t5lczw3jkLoedVayyKuz9MGYYAjCXr0vVhg27G7amFkKrmLMbYREAsWH+xdeSH/cSpRCcGcYDdznsMKi3l7YAFUmfnEtkvcTlMHc+89g4LOVr68H8JFsaiXqJpvl9HhmmMcNYDivqmB4lkWFtwU5pWggNAwh7iSocVHH0V5vveol/MAyFhgVIqlwgSH9F0vUcVtP0+g8vjLWOTBtZDiuXRjkjWzWVKLFhbzvHw6kNEcIahsAcNY8nQycaNaW7IilEhg1VVXXVg++qe1t33PCHtiwPXdWlUf94MvlaDI+7BrcVSVMPNYxEnC6PT13CmAhnGKwMU1rT4NwBFMWprkjKDDs6HI/Hh4eH0SaKj2TaGDUddrtduosO8lyRNN0M5L1uudstl99TypQwfiGiYeNbdwPVVUvpzmHPqkiajcMS4lK4iqRPGCbLL/foJyydSGG7tNdLtC8aE0qjQb+UMGhEwSQK6CEWRf/mIDMsEfq/zwM7DRQWBYKdDhjIj5FqwwCxVxSC8gBgW/gdQRgJdkZTA6xOxdqpEvB0gHp18Bgn/JaIzcj4xd4dEgAAACAM69+aDKAQW4I3OAAAAAAAAAAAAAAAAAAAlN6emGPo4Xsw7J1dU9pAGIUPBxZqEglRSOwWELAo4gQCTFD51goCBan//88Ubhz7Fb1Bsh2eq51MLt43u0/OXu3+37x1SHvorjMOqHPLEOE80P4PGOiQKl2AwX2QVOJfwcC1SYT0moRf+ZgqGbqrnf8BReDXUGNhgm+FsQoLE2BwpYoIBn7EhQ6kTCpBLXlMBGBvXlGAuRn88xcHSTUoOoEKKtNHUmLL2N8SapATQUsznVCD5xQCsXIJNXCLgdlgjhJqUP2KLVOKRT+pQPQo0LCTaDT2KfxEYxoCsTJRJeYjmkgiSDHzVoU+YusJKWK7bAy70cLPJOoKBFCO+lr4Of/yDsNyWvhJx9aGBbE2zDvVQs/9xxjWQfhpvmnYGcLP/Ns7DCsg/KQe3jasoMDB9o2PMWyA8PN/GJb8/g7D0gg/7zEsrYBhnb1he8NCyd6wvWGhZG9YyFDJMG54GRAAiQ3cG7YLw7jhZfzySD3DXjXyqqFdGvaqGv5WC0FyO4aJQbvZbEdAXi3Xg5QAi70SiVo3DpDKGEb+5XtSPcN+rOfj/AAgYNeTJODMmu2OxBqqYxj1XrvZPhQAAW0mCJBysfrKHRlGkEIv2RKkFZEAKWYpAHQMEtyKYQRgZd3ucDSuUaT96Ww6bh2wmMkajPRHBkB1MowidddqteoOaBZarXaEVmEGgGoZxpvn1ax8+wjIRv9hKoh4+ql33h8SpDqGkY3n/HDVvzHJg/YX1wIBNr49zAS4C8MIgJ27UbYIGDeTIkjEszMAonchTV2QW9olOictA/pzXoi0Z0DUKtk4LxOXslsdEFRplyjOq6eNqd+T8QtvMVh2GL/OA1Qsw3jT1xHPjIGFO/G7AtCqHciyb4IAqIphuPJTEFP/CoZ3lnEdEDDyt/5Q7CbDSHBw96hHJGTXfbJJ4mvrSgqIw7ocTi2u2UqGOSd3BsR1WYjCmU6y7jdgnp0N3HtJUqFdIsTStWGVPbtW7RJSIp4pAFQuwyo2pOeBnfo8MxWQhUkc1Ko1gqBCGeYvwIXfgLE8Lh85JMXQu8zUd5VhpD6qWw7JVLaQdQiycXtx0TUdrVh3K12L5JYybFKyFv4pReE2QiDpd8GB71d0EEoZxqlrw8mP9fl13iDIeCatYoZVjq2GvwSBg41hkUnWBDv+IaHQLhFsVE8tuzy2SWBjGFjypvPMrjIMZOfIG7VqnJ8smisBgJef27OcZo9rh9f1miSxnQwrJ8bjvuZgnWEREiV/BZgnsQJBAgoZJpZHV/ajWxfW/ffco0kambSCGXb/JfdU6RkkcLw2jLqXtcBB9VQA6mTYT/bORi1xIwrDJx9mNCQQkEAwChLkT1jAgIACK6ALAv6A938zHZJatd12qUXNWN/ayTDss8/Ori8nc2ZyJHIeTofnyZzsGRYFyYVU1q4OPiyGUf+7k8unlXw/e3CBbshhjQNdP+iFJ+pyrANvla2PJsfLYGtheYYR2a0poVt9KDEioXKJJE+3U5PynUlkBk/KRzU3hkG0XCIud52LU0MnghvDII09w4IyBMolgirlnl1sxUBeDCMsT0PIxWcgwscYVihaOCv2y4bROssW0ncxYyZnh5HjolQ3LIA2H8NAWOUSm5p816o9xrBg+YLM1DjUurPcXwBxDFvszhPj7yoIMhu0xpompGF8HYZZOUIEL4bpyZFOiLRqEMswvg5DtpSOwothZBVujEJ6ezKzCPiYGDayIyfX9qCXLM9UIlLL7Vx7xNJ9PWOoMoC3imEjRmrZkLlhDEhMRswa3ETMwkMXIBLKsGqWeJbDIvAXhQdF54ZxIJxhpJ9O4K7DeoB815mTldnViQgi3SW2QsC0tQS5hkEOz3q9s5tR6MMMyzVTk2OLSA5d0grl/CA1svVk1xp8P2NvYRg4pDcnjDCparJRdexlOhWWw9W0hkT1XhMplwjPMD15ktATgGlUmSZkpiMTT5BslLPQY5GWMWewz41wqNQDCZXpIOfhlsi+aUBW7El5qVjEsTt1GaD3N4wDWKYJgEiWveBhWaYFWIDM33gbwwgw+z0T6BYVBJuj0agXJUTyKkChZhYcUWIYIBd2s4TQTciZLAbG0TXYriHeqSkcNjQiO11DNz+aDEdBGXZxNLoAcSDOfhhiRg1kNe6gp0eTySgjrUazZw4+ascZILg8P4fmXgGv8zYxjIsM4hKDZFPXoxatXhDgDomUS4S8rOuA1FtakcZluyLDrHcFjGGWBd6aMqxo1IzqFgBTj8ogodZhBNmSgdVsENWjpm6CQIA7iI86+ftomCcbuS1k0Iq3OdOB378AEOC1hJenIyGKYXj6aHqcj4gnf19uQ8LrY1PlrCLf3suwp+BA9OKfhT5mHfbrd/By+OvplbX+MrHBc4nAez694on1ckLvZRhALv6tnesatnk2bxj+4VsRq/82YNjuOxqGn/TFMwyEn3ffzzDOBiYBwpt8UmBl2JzeEggUw3Y/y/NhwCd4AnMtw/xf7fYdDAM3rK74n/QvqrnlA3HF/4T21jCsqfif3hq1ppq24nsGb/+M88qw/W3/8+2Xhu1s+5/9wMqwX2Q6trb9z4/Arw3b2tv2PftvbhiQ/ba1cXgxyq0Ns/Oru8StjbMTCGz8t/ylYfrp1pYQE/mVYSdbW0LM4+3rdJih4KaptwJHg/pGGaR+YVg4uHHygR+F+mZp//jnbD1IdoIbJxV4GPDLO1YkBcmV4MaZ/D4PwSqSvgHsPJDX2UbRDdewd2UW2JtrbJNoy21u2LtjBOJR2ijejvN7w3dszMe+QBVJ3wD2PZBn0kbRPsCwQWCvJm2Wypdhrwd/GCbSftgjX4Z9GfZlmDB8GfZl2O/8TwwDrcH7GcaiHJ1JTF9dJY6urYZ19mXYG+AZtkbZ0j+G/nhHHMNezsPDHYHLhs8lymbUAmHVukOxC5MAWKA1eAfDIganUZOcS34tKEzKtYN8uNZwhDNMVROJhMo7XqtKqlCGmf1Go9HXAJBV6asggt1uLBQi1m9wcjIRBDAMzqr86lwGCNlFmDirTl0ndPk77VB0U4Z51l4kR9MoZY1RQXIN6xlRAnINhdYo0fDGhqmqpJ3tny0W/bnUuylO78apiJY4aSmamu44TDDDnOb9/f34mLHZZNzsSqxuKEIZlmiNB714UQdQ71w5AGqTYn80VClXHg7qyaOZBREMk43yop4+7QKwUzs9IhBZmZ1dheRieTpYnOelTdb8zQZrx7tzcxbp7i4IRGZ6uhp38mq2qBJAa/CGMUzVLsvzqK5LUq/lRPXYpBXWr8uGOrhaCLcOm+3fVSpOjPWverXBQtHSrblYhnUKhND+LZmZ+EG5Auj3IxN2pyHnyn0ia9o6FiGGuRUESTpvmjSrNren7lj3+31pZdhRlKC0DvQNGmaZFCzFoMt66o44ajLTDzLYNeWyXFBpDd7SMFXihtUkDuu1LpikBa+mqpouh/jfh3DrsOOrkK5rTBmmYrqalbRiRzTD2kSV7SCZi26QG0a5+ADQ80MtV+4RkVpqWgIYRlbmu0RWc2jSbb/WmhKItAOjEI9xw841IpqWKxs0TC3k812ZIIeOasSx46lGqsAy0/DJuJ0FQGvwhusw1ih3s0p2FcOumcTCpWSC2dWr3ZB4ucTjq6DOmJQ9KF/wi8rEM+xSVY2qAsi4LTugSPmWYJ6dJ7hhIDIz5wlABMNO51J3dwqOsjIM8qBk91zDjhiBKtuDDa7Dot3jg55JWI5nlqRkze6ug7uDbLqrG4cyfbRhPIY1vp2Px72EF8Mk5aiZZVJmZxwTzjB2fNML12xVm9102rbKWFo4w1rDk4kDIriGIXTlGnaadWMYrEVJIREMM/bHvPwqIxDFylMQEkcFaxpXCMXz1Wjuqr+5qtrg7eVEw3JYl1EfHVTqSVPOZOxxLJsKA/j4GHZ5dRsOKyrjMYy/tL8nE5Id324JGMMO96rjVCYnqc6wfDVNaEXh1mFGttcKkWdYBVjFMDLPvruGgazG96wI2XorE69VeMaGgJVhq1+aSsjTUwWru0SAajebimEEzG2o47Z5fRCxCJaum+m8Zd+HIk3J+a7Th8ewlWHlmrv15RrGLlp3kmp0guepmKQKZtjxzSyhrPL0TL0+uQoKuA4rUHSc0glEty0HWHYOiaLFoRZzDWPjoSlEDOPrMDl4dQuAlNYUpMZL7XZq27C5YQzAcdnBxtZhNSM5SSdyp51ksm4CiCbHB6O6ftc25/F8jehjc4mql+nQGFsZdqGxbLpT04MPbZ6PW6iixbBjbhXzutGLqzvNEM6wNiG4fe0606qAEqW0jFipILsxTA52giLkEkk2vkuQqkkL5MUwPVLv9yZXbYWvw3SCdNTUN2YY5NiFw0ivOBcXtgxAzua6SwtZFVbYkfDR+2FclrPt+vX1RYz1rhYXkbNSXVNK1ZykNDtd0fbDjh9Cpq5riUpC12cPM124GNZqECnVtCkrTnu7t9StXnzWTZ9kKfdQdJz+SSEqiGGnEuTLqxzUymw77WTh/QwdheR069q5TqZsYGN3iXhWkszreeNrlL96l0yHKs1Sk+Hw4Fq6Hd5PJvmwxGqjGX+nOzwUzDB2vJ/u93qOnS/2CydGTrhMBzOCRNbgjFmDg9H9KG3DHDSbxRygGsNm88AxARFyifLsUicsD8LET1vcDw+CMvhgJJMgDCZ8Hj0V2FgM+8Mm7/JMOK/34TvOHKYxtnqfN8zzxxsWLtNRaxiGUQyyWqZY7KsSu51mhTKMA3pWh9D98joeEMIw4I/48jQCPJ/JxgwDPIjw1MejeAT4wrAXqO6Xi2jrMO6U+yGhuh8W7sWvJ3/1fyxeC5DXvDw+6439Ta0pHxn2KBTchp6HEjxdP9vTK9rX0yt/ZxjoffEMezUCGPbhT6+8M14MU1VpgzAjUP0Iw9j/yjD43zBg3TLHvwbw6iWKBzcsrWsbRc98RAzbnm94GkvXMND7YgROo+DXTxHDANoUADnCGta0bXtub45c/iMM27/O2RsltPcx67Dd3Oo5to2RSAw+xrBOjE9jk/M4FPYuMbCzYQLcMNC7MuCz2DSBD7lL3PhEvHqJ7wwu3+AfRFDDSoHN8/4xrB54Az7iLrEY2DwfY9jmEdMweRlZk3Hg6ngtDu/f3zA1si6ZwNb08HgNCvsfcZcYW3seOz96kVuXCL9Gnpo/+L17tvX+hpESWZPbUaA8uHV73kxW/ccrb56ubTHXYf9qhRDV18F0Mx1+JRT4Ya81DzfT4V9CW3sKAAK5LZ7vmT1tq+Jxx9m3oLATl4A/9tPJBU+9x46omY5/ZRjz7X7Y+gQDP8Kaf2tNrU3QM+wRejqlALf7iO8Na+9UJbz8E3uT8f5/mpOg2fovwwQ27PEo67OWA6+PVUcIw+ISvZgGHrtPs/ky7Muwd8YzTFYVRfEqvKk6ONrqpZWwQJAkGbBUy/+GVSVoWUVJuFZJquxKJSVMaBq5UwBkpkHQMx2vNUzTOV5xUu+AsLiGad5ENCaeYdJ5qTkc1YBse3dqEez8ZDxRYue3RNbBOEroHs39b1hcsjKd4fCoa8EMnh8xEJE0KV/IZwcWIRi/BrHm3StiGNzGkletGTWxGlG6JoEPguC3n/n5wjD18CyTOTvmHadd48PBqSKqYYnjs8w0Kyn1UEIww2Kk7t4xqdSEPvxeblukNQ1VOS1mU2mLlM62QlbhXPK/YVXJTA4V6a4Us+rx+K5KIEw7eyH0H2yyjG8NmWKt2WvO1hPIqqRrRNZFOnmpEwFTI0og+0yRddlnP1j3hWHZSbk9vYynw+ziJq/qzm4yy20T0TC1UDqb5vts/j2ZFc+wap+QHMvRoH3SsODEK4RFNTE9z1Ko9HAIvZmBEIblmzpFWjVrWZnGVQC58WL3lsLlECXGu8Mo3ZZi/9owrLB6pc6S5OAkEs7JbkXSBQByDhLZMwn+CmMvDRumsroUKqclZvxwoumrClOFjGEsV85LWm4uzY/yAhq2mwk7qT6IzCNu2KwUIxxfzZ2WI7fzo7yVKAWFyHSY+ZRTyRd1Iss1zMwYS26YdN+wluNCfC43mtF/ffIXBIDdTZMqze+7WI24FUkHQQl2TTlrLVTyFU+Gqa5hCu9lbip6LT48bjVUQddhzH5IJhi/csNEu0tUIHWqo6s7E0TRlWGDkkK4LtfUeF9q1o+/Jy5OcwIYtophD8NqSqdHw65T81rnluTCvVofhUv16P3CwqtiGMx60kK9kzbqOnFypZPGeKFd9sInqXbWX7eJz2KYyg07UbhLs/0Qk/rbraPwalREw6Rsc++gIjEmYAxTSK1O9XbcBv4wDIhUbTl/MJ84dqk7bWpiGJZsJm7Lt4BnGEtPzeVuSCYnXjEMljdiJQevqNNBAEWNBpnF+9Dg9FCdz/VudUl3zWzaiRohvyU7PMM8XMOYxG63D3UpUQ0sNFUSdB0mKY1WeVIT1bAe6bttwL1LpOtqmNAvJai/W7iXtHFx2JMFMWykm8UJI7IWcZXs05Ph+Y/SQNbOMyeHcv88M5YIrzCMQCx/SFp6QNH7/mw4qgySJi6N3DjnViT110LsJzGMBfcOmRbc3hvGBN4PS9SKNyM7J6phaKZMIuukIJPSqZPVHJkUrp4alnxZ7nT9f2rqMdOBUKtCJPdLjKxYODxrTVUgXS3FUNktn1mv+vlhkM3wSVjW89No6H5ORFY6yWr3kVCTOSVJ9q9hPIaNXMMaNw5fhx2ErtqqJGamg6NK+nT/NiaiYRI3jG4fHH16eXVeCFv1caOYqhHp99tBoLufUkUwLO7GMKidS8tpn9xkQlEiWq3DgMFe04Q+/OYQ0WtiWMw42RteWIPz5jhiEVG0edKc9PTCZTTcSS59tQr7SS5R0+1qU5KM7a40KleYoDFMVRnTp1cXQhpmRWIg7TAbHfTq/XoO5kWvbgOQK4cSwIIVS4xTU3LFsUi+qFi1fr/evzAJYKEEAephDcBypuMVhoEQndfCNQlWrqYABMhqtmZbUBlkJaz5KoL9JZdYDXWvT8Zh/XrfkDSnNRJ1P+y6edgdVC+l+blw+2HKY2nNP6Dn9ag8hNgPw58hr3l6Qa+7S+Tti0JW+H0YIJ+lOf5sWKKQGg5HdwpTZ8klU9VCci5oDMv2hsNJIcFimalw2XrvuwT0V8M8CCRCDKtKT4mJZ2o979LrDKM/mUr03C6fLcP+dGrKrTrIJJV3xD75qzLG3Kt4J39jBIDop3Z5iGIY4PW9+EuPFxfPitdVcwO9NAmgp3qufkslvjSMoz61HHGz9c/kUoUzzO0+f9TDe/X845oi30QwDIQ/FwB+0uNVhuGp5eDZuL82mn8H4N5Ia8H8axgIrmH+rZf4L+8SH4Hb+Kea27827PNWJF0XrP18mMqKgapPDSO4MYx9OsP+HgEyHXEJhF8VXBW2IumawDVMY2sg6f6NYZ5h87XmsfwchgkRwz5zzd81AXHDWpW1WB741zDihn0LLitrMNv3+TpsPxReh/l0y+eGdS7C61D//HeJO3vrscUN8+mHP7hhgf29ddgP7Bz6OoYF9rfXYj/ga8Ma/PtqvXl8asOAn1ejDfx00LcxDEBwZ22+Bf23K/lk2P7Pyy3zIr9bbtdt3b6/DWtv/WweHl7XGxG15u/6GIGrPqfXW9wtpv3fOQps1/s9Pjrlo/y66tdTvjWMox6uTchnT+i9QA0d/pXizo+7Wb0+4N3jwTFvB/VZ0PD3XWIsePgXjieBq0lgZz9/eHy2N5zxkfyPzNnnN2zXjOpRMxE/uZ9EWFTnmMVAx+Q9U2qeTyY9VYCKpJ+a0LebWiY1asag9FIVQnc0Ssf8nUv8KbjbiTfyueOJpFyOpjJRtli+dv4HhjH3sfvdUKx+EmQSh6UDHW11jU2msduThSpJqs93nD813DAnWVfaeTNYSEUoMRzk0pchAQ3jCcZMA5VUzFIbC4vkwuUk9LlziY+GcX/seJcxo5l4YZgymkl6PRVm/t5x/uysDEvPsm3DInMcQTefRWgyEM8wmRvW6CSbMwty486Sr9PZZuj/UFXb3U+2T7uSvpgo7E+GMS04WfJB9cuwD4MbVmlWU80sUfQ+gut0As6kLqZhl5PDkxm5hiUmM3tcj/wf7hIZl8mNYZm/xjDGY1jtK4Z9JF4Mq3ePanANu0gn5NBI0BiWyVize413F5aSvx/vpdr/2TA5kuWtP48lPhmm2XFHr5z0pJfrsNGhqQyNhP9P/n5qXMNC5mXGIpMbZt/XrHZDwHWYa5hhKZPbROP0fKqaemI8u3iVYYB5nGze6SAgMXEAsvoDyzTJf/zG3rmopY2EYfjLx04oEIzIIZhykLOFBUEUPCK2CxZP1fu/mQ1BBNyKu90gGZvXYKbj81TG8PLPTGZ+Yr6uYst02Ozfn+UXDFMC9+f9/teoBGvrPzRjw3Y20WjnblPVwvfI6bBdyrl71dSrhrVyFI2ocjEahXVYxdCvrvy97QfD6TAtapcBgMb+hTEKw31Yho1HWUroZHPzJKQsGhZqXG328uOfe4atkbAlU0KHGdDzrVorR+OhlaekhoVIgHN7k3/NMKJc0q4HJ7TIps/2akI7CQULqZoJtzGJYbZaqq3SzLBJner+3SsfHcuwHADOfVKQ21f+LjOMC3uef222nmilS6U9A4D48S2WaUZbw0D5cWfTjYbNsrnZei0YFno+PMPWhG3Ytm0YQfLpLLFhs7QjwC8bZma7ha2eGUqoajKjRdMntxnRGoZcONnxNFtvfymLhs0U8+44r5OZYTagBHucfwanMWxm2C/HMJEdPqjldq7S7+SSNWwMGt9/4Gwn4lLD1Gk/cb6XKFeejg+NbRin/USC7t8f9kYvkYSFfe79kmFGLGPosaSuhLRa/MHoXAZSV6Ly3XCnYZPhl6rYjxeGyZIv8UPzNA4DaZqGIAjXZyT9KRwbZjejdnd3ppD49ZmO3iDVbm+AwGY82U41cukovx6fum8YNjbMNimws6EkzrLqgmFaqxOQIxPOh+bZMLOSSt7pgPtzTf0Ulp8M02KXp+2OiV83DGaxVksQFnrg2ioZAZPKQ9SFr9DnO871Ey1f2l8wLKQFm0XPsLUzMYyEXj/dvAyTlDSGPRt2lGV2GCHpQCYcPn2jS7NNjQ2brEts6YlMZzGG6ZZhXi9x7UxjGPTjDa1yJuj+TDjLDAO0neTosmOSvx7DaIP5BKdu+1ijF+sSo4/9TLL+wjAtmC6qnmFrZmZYpHtZ6l7LH8P0nfRRqaLgfxkGgsS8WS5Mqf28pkPRiodfR6fp8osYlrUM83qJ62ZmWL2cje0YkPSO81wvMYj8cHNm2P/FtSt/OduBafUSI6FKRx3fGJuPYXlD9wxbK7P7YdALOdTOQ7IaJjoTw6DFYr2L+2vwN8pIqubi45mOSS9Ry/gObdW0cHenM5plJHVrrqkPztgwWiDSzfxI3glS6jUdpBkulWIt8dtkJNU1VdMSo6iqXNVUVVEVveLr6qqFnvtRLmenGUndm83tg/PcSxSj09ORLkNG0mUxzIJCCGLMBzcMk4ykdirPRq328GCVxsW2rzotWsiQkfRDE/7zczhajFoUcznrbHPq6lxTrxl22Iq+4OJD9xI5yUjq357Dbx1/PFf6/f5p/Z9eL3Ed2Ib5Pt/457nx37g7I+lrhn3avrl5asCY3yIj6R//nrgXw9ZCePuPn/EonWHlP3/Wjs8fu5eYy9oEs4vY/35Zc+KFsLUQCi9clGl5U4dcMBr82YssLFs7PDw8PDw8PDw8PDw8PDw8PDw8PDw8PDw8PDw8PDw8PDw8PDw8PDw8PDw8PDw8PDw8PDw8PDw8PDw8PDw8lkC6MVfpzyCJV6EkDSHewKXZz//j5QDp3jzTy9vhPKSQhWWGuf9STg0juPTnQhqWXg6JXldYLVRLKUn4wmWXVFdU16NYqEtjMc1ySg7aR1zWMWIolpKDjobVEvjkk4TSEsNgJOtx11OP1+u7CvE61Os+SXgUywxD1O+Tg60EVkv+D99W2vU0m3/5MsTrGFs+OfiUx1LD4r6btOtpph991SWGWURvfIfNZjPtYprW8bhqwzg2bDPievTI7huG1X3xmPsZ+D4lsAzLsEpEAvaXGAZMDNuL6HrE3eidd4lhPWdH8tMyHf3osvM3DevQ/fT+hWExOMHsM+SAyclRyrZhS7AMu4BTTBoBjsHka3L8T8jyJ6kMI0HOStMyiPcwbJ8ONoIWACeAhDNcvWVYxDHDbBYMI0AHDeM7GEbQPs3haGtkMozgzKzZyxO0AeUy7LkF0wcpo2EgFhoCUi7DMPf3f45fExx456ZUhtlwQTHYxUmVVIaBADnnl5QxbBaCZ1dDOsOmb3VzJfv0VPU7xbB/3M0nMHdp5eklzt45Zw2RMIbh5bMnSPliGPnignBBvt8phjGwGcxuKgDzViEcAos9k2TxwZTKMCpXwWAwQELpjT/xxQRhtBLSGRZpWc1omATAXM3EGO0kIdk4zCJ3G8ze6iBB7SQEQLdalt0Mkesbh4lIxCRAwyQslCsVAE2xUsNEbLsSG17mIO4eU5V0OyBG1aygcpCJADIZFv7WjqWOr4jb7ctY5vgoQBS/7UnXS9zYSscy598JmtmtegikCJT8e3IZRhDJaqlSiEUBkWtvjwD0qv1YrJMD+f7jMIIWeraUPDPB6OUX2lc1mSeR6DRoCHBlhmUOiVw8Y4hyPI9AvWLopYOicXdYIyDRXCLD3Q0Y6YKCoL8BNgb9PIr+M4CyGfYF4utjEdp+vVtPgKKXrn+WzDCASBVU5Kox4Oqg4B+BCFcbTt0C+u+GEaTZSbUaeTIU+/ydIPijYpCMZhpKJ7/CGFY5FNBTfV2U6wGK+3uNDf/Xh27ZhFyGBbs1oLyVR3C7RrL2+WxsmIQx7IK8qp4gUQl/jY8N29vvVc/kNMyMt4HTnVZ1BFiG1QiAxBpiGAFeDaMEaJRT/VuQNDKl7JeAyLfyP6rlPFYaw64P9oUVwwIIxDsmzK+Hu+capDOsAWNwr48NA6DEMyzeyBjDRhBftxIQptmxDANNkZPPMCDVVHFdvZs8/xGIoD928SVBgFxDDCOMWLyys2lylLpt50BCuT/Y75fU01iuf75fJFc2DvtciV0eBSju/KlYurpBIBf/vEfZDAv7L2OlZGt8JWsgtX7KlDKGHTZjlfaIIMaGkQSuH6UzjEj5S5X7uzwtNqoXAALfO5308IFYSwwjEulKsHxQrCU3bvuqlrtWcoULcZsulvfM8p4AwFX1Er9lzx73TYhy9XvwyyCVAK8Ot2NCOsOq5Yt4SrcNI6HeJ83ijXQzHdzoZoL93RwB2jGMpKSGdfc61ZFJgteHIxBj8lv3a1nTQQC5dgPF495lu1dJ53rtfvDkMoGLfrTUC12eEKvsJQqWDzdg9xIZfsxCHwyPqg3ZDLN6iTz5tjc1LHQYY/FGwhjW/YLAVoXgxDCMDZOul0ig3VSNo3oRJDbscRhImsO6saYYxsDwRL8rFfcz7cNmVgD80Uwk+t830oHr86IAyRXOdATqMdM2DLXqmfhRbYUGgxAh1aqpYPcB5n1Btwx7AMRFtYWclIZdgPvVAPHSMFpIY9hkpiNfPSIBO4ZREIgcpwX5/nOJIBnZSffbDUERSLUESNHZHV7uhLJDNVDvn6zSsKqAsXMQEOV6UURiW41GNxYRJ9vfBQiJVk0FDx/Ave0WgtsnphGM3xnI+c8g2R1nNsaG1R5PSRHZr+cFSdF4PBUEJDIMRPtYhTk81kGxUd0TNC9qQnypflnTukSCkY2HBAiaCRMghZZvbBjQEkIEGgpXN9NRHgiwsdsTF/XmIJ26Nu8KCmlm2gplWtOB3nADCAz2RK9eGAzaLRMIHAeli2HF4S2hVWIR5evgoNss5cVmv9DdHQaFTDHM4iipgbfnGwgOm93z4ZW4aA4Gw5ZJglzD/TAQxOLGIBIkZhWrMQxaiICZNxjJR6NFBVQTIK1qIZdhRsgEREinYbUjmiBAkYhQNsPMkAFQU2gmooFANG9Si44LGi3kGYeRqiIAM2FQjUbzgahOIxAtJgiuZU3HwlrPl/ucQGB1Mez5lxFY3GYg18pfTk+Le8VkM4zA/BNf3E0k00wHOb9+gwuN4TrGYeAUcPZ8MFe9KsOwYNQMQK4YBhB8+v7cAEi38teGmNubN7NLphg220k0U21aAzfswOTCCau7Hzbfcufh++9e4ZLotTLDqDtmGMHFiOYgXG4YLWzDnIUk5hviDsPegLQMO4EEvLdhIJ1/ZWJzuWGEbZgELI9hE8NGcD28exfDmkkJ2H7TsB3NWVT7cJbgUsNoG3aYXAmlpJNs+arirRi2m3SeUtJZtt4h15Q0GUnfMsx/4H6qbxomS97Ht/IlFr2MpDakki44ze5fPv/u7sGuk5z/ucwwIiJLrtxPiWXNoFEpOI7f9+d5wWG+vZUvMdE+LjjNX77tgsOsPCMpaOH0/6ee+0q6oqgOounx5YaZZ0dOs7Pl2844S2WwPIaBhPPEfPEInIRcmi+RoI3jzSn4SnASQjgyl0gQ78rYME35OaotnqLYxyJW9etEbMOWQOE0Zsx3ENJU7XXtVXuoptiFudrXidjjMAdw0jA+nzhlVrc0I6kDOGTYk87TB7GQhpVc3VwiCZJrMOw1W0JPp/F58ghZx7T8OpMY9q4Iy7CEsozQ7BGar30VPesuw+bz7NFm8aYqSC6ZS3QARwzjBHAmGPli3QNXZBhIwmWGWUZNDZuVbGQzTAlNDovntliHNIb9zd6Z9iWOBGG8utjObOhIuEyYHsIRiCgsyCGHgMixXI6gfv8vs0mAARx3F112TPvzEZI28IJ28p+nurq72Lv1cKv9exZFIWz3o6+u/hth6BLm+S/5O5wwVxvjcvTjKCJha+/d2jJzjiJ52N6dt3OPwu7KVgE8bH9t4HaZ3os1p48/4+wxwhghkiqpimK3VEVVnDcqEmNMUgkTijBCFEeSc7b74/ZNkohAHgb44pcO7C4fF4IwRIB919q+sD78fx6Gtu4IvE3HJ4w5d2HAP7+9vUhLkaR9rhASubgjhATuI2J5GJGTt/PbeYGYJ3Y/5lmJEa3ddkxMFMLQnAbvp6bb1tvy6j7NFji6rwSDdxRBBMJAbweD9wHuJrwiJR2AytP7YLDEUS3Yr0xVOOo4TO2edRSglcWDDOj8PughIK0UKLxBx48SleqXgWXl2or/azkxufIrhSeLSSx+HZDEIiw4ylgxK6k85q8sKzOZ2sxNJrJAHsbPnqzccpkFAFL91qAASNtXRROALr7Ho4nyLISAAhBmjjLR2M2cI0Dy9EYG1KP1RC56qUOhObb7kQsgHM/D8HLWOe1gadHpGwoAQqmfBsSQNeP+x79j+ZcS1sqnQ6pKSHKU1DWjKCvD736lO+pIgnlYMD9XnTD38elMVbODZo/Iy7EpEmHVK0blTEyF0rj4VKUIoeFVuC4j0MapTKk/nNLR+4Qhyt+7VG+M7kBthU+vZMBQbckppQiFp3tKzfhV6YjjMDQ5GZ9RScILtzwD+GvTR4Z6ySwsGyb1AmFPJecsJUdzSU2N0mrpdBm4yUQEy3TYhF1KjBHpMd+QiBSoxzVzuRSNMODRMYNgqnc1pIgscdJwCHMLNyOf1R8FyNY7hHUApl8roMV7jRVhEwq2HMIA4a5exSN6WOW2mjARQbcsDoi4qA/GNa1g3cW+9P38Zdf/xYQFiGSfk09z1TQMUyLzp/PmCREt0xHM3xIirQkjZu3qTjzCNJ69bulAuXY6pIBUx4f8hjCAx9GtAIQB2ITxULXphIerQkyhWrN7Ow05HnYCCEptIh3Rw04aVkpC5LdGCTmnIauv3WUq/hqfTgh6IUocfh1Y1owR/7dMrv91phBJM3wJjQnnYV8yllWV14SxYbEkGmFnIysaz7nDdYcw9+6wCYO1h0GkPhODsK/XUat/TxHc+BaA986qqXBVhYpNGABPlbUj5hKR9uoB0C8nJTQTg4ZsBSEwLsyGvNPSPTEOG35/mF/0mOT/mkvO++GSJGWbfyzTwq3pCI4SF/N7bU2Y1hKPsEb9NplPuWRpp1XnjLD1MIRsfibAOMzxMMtfO08Dup9cRluU8u73IK6iRD1qaEfzMNVEmGfkUKdWAtDTAblUDmCnls0llcQJAniAsFY+G1IVZxyW5Hq7nmJarrjID8UjrH7hZmwen1zCxteyaIRVzyXsPBUAEB3CAMElzHUCEwDbo6QYHja6dMqvclgRtl6XWBp1cBUlEiMWOpKHIZizs2r/Uu08xRczGWydjKLD5TRilJT4YPqmRMfxCQtIRHJyiXNVCZzGyO33GYvXK+LlEm+d+WbJJkyRlGl+QeTlUqhsvZPpkK+iOiD+8LDZljA1d62JQdj3DtDqUwQR6MKJEtHpS/t70vUwwF59fqT5MAREuTtrU96+7My6rl3KPX/nEaWpSkudNsX3zXQw+6G0vvci2YgpJb90zEj1y0nk9CqiFJp9WSzCpOBoJmezplQYpeRI8LwmE3NsyAKtmuLVInNCxTvQWakZNVWkEhs+VQinjWaBsWoxKMaMs/x15qQNO5xKWqpZIFReZFmkb0hQGV0yrTeOSkeaD0Nb+99+CzsXEMADmQ6mLOrX5fI4qd7nT41yeUbuw3NCtMZ5TyzCSLvpfP6FVDoNG0b5IUuIGYuLFCXS2YQAFq7usTAw8sVlh6ut5Wm+nJBpN19eLqOPVIi19aCdzgFVy1Kk4biYL0c1FjeW41wEIHB9vhyXgxIex8O2y4v32qvj+vC+hDHnoMmRSETWGDPlbES2fzfdl0xNMMKYbHckaxLinGWnc8w0mUAehjyECKhy5IQoCgkhdXa7EYUiVwghOoAQhCENcUTgO59fJ4RwAKAhZ14IAY7kYbCCal+wu8z43TMdjK13PxP3rLhnlz1JtEwHkZRVR9zjSoKt/MXdGp/bnYvuYyUhcomAz11l312Ovz8MAX8wtW7/mhBxSxj7x22LTHLO+xJuPsx1rXVj02beJEyFF4XbzcC7XG1ocw4irEvEHX/Z33+z088jEYaAB1Qm/R+FgChdO4QxcqgOeWfo1xKGAOgS9urPLxRhz+OfQ4vK4nsRFjssFYGbxlb4D3XrhZJDmOthtsi/a/UeDxKG6BLGJGL//JucjhwklzCEXyy7HwrnnP6j+I7ov4nTxjsRRjmlR+sI51xAwhAcwvK1Iyv+7ddGiQ5hOdfD2AEWxg71sAvf7yb8akV93+LW4YpZByj8PoTlrSOr6BOMMFx72P+g9/Cw3+rHVfP7exCW8/0Peo9aU9e+lUSqSHp8IaLaKh8op8bkzUG6/uMXexgATfiOr/cg7LJ8qEa+PzLlg/T0Hh528H315Pvz5sB3CkcYOohx/UCRG1/swPiq+Os9bNpKHaal7/da7qCKpIbvNw1+tah+qFq+pqofpMY7eNjh91XVVzT1QxQ6Rp0OQER4B+EB79CvfTHphcQc22bD3y9bj3CoTnx/3oXUrRTFfSrOU92Vblck9fJ/mUNfU4fdilOAuDkA4E6G361I6lVh4/dTsi2Jsy04tV9/9UgVSd2nV7VPGPuB1Y/WHmGe7Yff92dAeSlRygjzQLb+dYQhUtipRoqu4Pm3LdqEefafwyGsuCHsWXnVVWMjUSuSvo2wPdtiHphx/g+EMfvhnfmw1xAW5gjPFirADmAb7IQgbOPEsIXK/WVnBcgxCAP0LmA7hDHvrel4M2FbMSYeYXuLqLYGttsEBK9HiUWyta1dvnaWqziiYlYkPVS4IWzDmFwqVB5N+xxwnCwbYKISpjpyW4okGmGoy4HAnYqIoMvuCU0NUTc5ItUYIoZMLgBhQLV0IKC5hMnOSc0GAgGJagoiKCYHsJtvJWxD65rerORV0nY9zFYjnxnfRCOsG05KRJ7UNEEJiwT9yeSUSYTIvaxYhDV1fDwtT8YpCdAchpOAqJ6cxlS4u2kjkL7FEf1jWQTC1Fixvxw8IqrtpqUDvWyOJ7W2mqvqALPzAILWT/I3EYZ6sEcBQv6zsywCgDKZusU7KtRjkP2US4w2A1LvKarIV1eyOhzdixol3n4tx+IZ61GRevmZYIRxbDdLmK53UM5kvncB+dlVc6ICKw4pFPJhE3i0LwlBWDmBPHcj2R2oj0NAq9fMHXmFZYDx712AdrONbyKMJZ6GHPkw1r2UERFKkwAghmILHix5zMmeExYOKHJmoimzb7d3xYFJGBOSsMv6vUSmRcOUpvmOWISFdWg3A8CMKmXJUtghrF1JLRWg1liH7mmzh2yyoJ4n7JRAqJwD7DQZbxdSLmEZAojQzrdBKeZzFDuG9saav6laEmnXMteZn2QtWNAwVNIq44bppT8L/kxYWr0rWoSwWr5fLNhXBCZMvRh1pGm9KxxhlXq30jVKCGCGLwER9NZEBbism2hFjRQv3FSEmA8LGZNKr9+gADS1DCEdNu8LJgX1aoHtceNcDsVab8wlKulEBaR+7fJCcwjDRX5ixNlj7i72dZzUwUv36XPCRo1OLH+vMKXw/bcziQlLmFNeVbo7jbGeaB7W1LEyyvTzF9QlrOuOOlpLBeAxXFHGycZSSl5r3p8Pcwgb5/vNBAGHsHEI0b8cjJ1hWa1GH6KV8JSVL8EmrKjBq9Xrm1C6ig8NS1WIqloDFsm0k3Ha6yueChJ/9rAvVip3lZKJVBj9dkYIk8Qch7keRlhmyYSLEm3C2uESnRjqmjDcEKYOhpVloHJVGOaoGISVozjNB9eEAdoKxTIq3p5Gat3Q4KFynX7jjDPOazrcTzRMjkuJflW27uFuXOkMebflLQeDl6JEqfElqMq1036zQggTljD7qF1PtGldNMI42JkO6NUrgG6UCOBEiQoAP7uu1oh8/WDcCrCmYz0OU43cOkpcJdcv6wRKp2eZCg7H0YHqRLtvIEyvNgDu45Key+nMJI/lEu3UsomkYvkpeAkxfCHTIUn+r11l8eUk0BQ600FsHw5HSU+0cdiaMC2T4rAhjLvjMEw/5TsYStRP0wCez3SscomAD3UTAB0P4xoHNWajJln5CYGTenPG8fWEIfJptWmc6NlBNNV3U4cnX6LD8TRSLim1/tRjCzz25sMkx8NCJPW9na0vtVDjS1LUbP2KsEV+qgg3DnNyifVH4I1wROukvo1nJp82rvLVNgc9/60CePvHWEHve5hDWCYBUBglefDsKn/W04bRh9y4jcg7vgQF8/TrI76+mhsA8l6n2w3q+NjpRhAQUZ6edApUcSuSVqiX/iw/eVhrNKlNrm/NRTMokUjZiAhKWDc/l7OXzSERL1vf1JHdS4BmkrBb+07qmrxtnzoVDtg7URGZv0TFIIy3S4h6L+0S0WnzUqfTSTtIsNs02pz4Q2+rlwjrx49fYa9eInopTNwStooHA1N/8qRAWKmg2RdKbU3QtfXJ4s143L8wJal9PReOsN3NHbY27Z06aQKMw4rkWbk1W/srLQHwjVW191dC79SM8+BWli1ha5Sk9VFyjsJmOrRIOp12DZjJmmiE7dyKgGvBtu28IoSHbVHaPPe6hG/dH4Ybo8KfazEioqcyHVvCNoztNxkR1MN2JDGxCAtzAMStV+FGsLNpTAjCYLt5ZUdrNN5O2NqlcNfgtxt+PJbneGl/GNuemOi7V5iA+8Oa+4TtWNjmKVCUuAVhJ1zc8TRYZeuPsQXeY9b1LzswPVAv8Tge9jJhXvtvbmdDRmsdJcJz7W0W9vYOTMQfUeJLWyVxp+W8U7hKOK8mzFL3pCiq8/NMiqp/DML8vt+8SxjahIU5/amSJ3e0PnG6ejQ8Ox+GiM6Ms/a8G6serJ7b1uLjE/Y0eEl957Gr2jevEoZoE/ZHQTMPkHbr3SgR3Sjxz1osHo/tK766tLnstsKeJqz6+7dBLP6sF5tzfN10+xT++IR5syLpaz3MVw8fouKTl6NEhJa3K5IeChhWP3JF0lcStleR9Pzm/Pzm+ovPvXi+98L1H14lDAH8r6pI6lXCAODi5aKdv2UMY2zYTWNcdo6GfdGrhLmIJZ0PmynvKfPk++PG7obbD+eC3TQy4lUkfTVhcabZIraY5ookfOuLjNjSXDFS9CphttK5wxVVwatC5OoLGvrq5rzVmtrNYIfZx5MkUateJQwRX+6HUvUVg9XWIqKqZregqoGz1rAiNf5TLhHXP94t6LbJJbKOsewHiSvJIUxihCjphDHOyc7L3s7We/VzHUlVX7NkNLrjpDqLhwkow0Ff83Au8e8KQFE7wZi6vmz1STp3c8b5bHl5kX1bnY4dqtB9em+11E+ERfu9al/eIcxpFMaLk8FMYp6fD/vYsgkLxEyIV3mkVybI0xeW5u219Vs9I6xVxUcjrd61Fpx34u0sxTcRtoZqf8rQe7PNe4SlomqyHHlO2CCoWVVii30S9m5yPWzZeoiVEAMZhghTYQkbZmapqg60uuC0YsUzt/pbPWyXqlXTm8HM1sPCsfMckfYJe8wYg/MTyftrOj62HA8b5/rREEDALSYjKGFntoedt26C4BKGSPnM0N5C2P63herSevrak2HilrDJSWcZ3PcwtbCs3kettMQ+CXtHuR4Wy8rGFCFdJgAwtZiIhDlRYkuf1TjSxgNHFeGk9hbCXPG2P6i4TCWrOgAoJdWTt+c2SmxRNlg887BCrQJBo6B8Evaecgkb3GE0p5Ye8t00b6fObzUxCUvl+J1RUfyTQZAtLpPxjv5GwvhlP2echQAQcg2KiFMjy9q69wJFlzDmeNj5MFEr7BOmFIxaNZ6SCWGf47B3k0uYliSQviXJaCI6VR9yidadeIShTVgySLm/YEYTuQXrRXNznb5p5S+CaVTgtsYQkfcvmURR7qnJZZZ7Lmm/IYy0Z4uHtrQfJRI5+bC4jHxmOt5ZVV+dw648/+1GL8kt3MZeuPgWwlCezAtWkiKCeT2eGG3emVeuRrU7z2UUV4Sx1Xf5E/aMMCbZEmH3ysfWJ2E/CfXq6NvQNfFSs6FFE1ruhOQWhHuMrxVhbhC4OuwRxtZ7WT4Je60+Cfu/CeOXVme4TPeiqYh/qdFqNGvdSbGpB7+tbx0lsjVP+x7GNth9Zjpep0/CDiUM30hYqVwA8/wknUya1RSS/mV7IqUNGQC8SJjyAy72jLCVgX2Ow16rT8L+bw9Ljx/aZxMTAEh8fLKYpGcJ+lhMSt6bEnMIW2GlEEaUPcLcqy5mXl+X+MH1gzC91K5o4hNGtUq7xP8TYdC2rIYGiKD0Hqyqye97qFZzd+A5uYQ5CE2nhAT8srRPWOVEjJq/H1trwhAK9dogbiJ4vk7HPxOmRs8t45IivpkwBOScrhdOUU7BaQHlHvyLrGecGYtGFTXZDyh7hEkPMfmTsHfXijBEKBiSVgsiiuxhiKi0bvl8EoK3Ewa4I0AE8FwVt59mnFOpUOh+UJL2Mx0P1idh768tYddtf+ZOgFpT/+RhiEpqWIqm+H+IEvdqSMIGNE8uTFx5GJNY1Ohe5saB/ShR+STMC/oxDivkJ8tMWmwPA0A1VRwYVRXwvxG2gWv1q+emmp+Nw0j0NBpdGp8e5kVtCRsr/Cyui06Y0prz7LgHiP8lSgR0j668WYx0S9h6f5h+Mijtj8PIQ0JTpE/C3lfbTEclk9WqUS44YaCkHrTCsrCNEj/uFnfE7dr6nKT6+yWFEaI4hJFVpsO4uC+xzxnnd9V2HJYej5cJDQHQ498f9qJoY+1h+qy8HMz5hrCPXAkH3YqkIUVVFX8yFCp1ZNVWKOezLzp1SUO9WMyaS6qkKAr/JOy9VPU1VzBRhRBV2PkwewfmqethyCUiUXCFi49MGLqE5eM1V4PaRnWfL197rrhnK5J+eFV9f8as2OZhrY7erUj6D1Hit4Hz0a2YK8tyHsWPXM3NIezcd7isT8LeRUPfixoJRhit+l5U2ISPq7/auYMUBEIoDMCT4CUiKngXaCudoPtfKNKiwV2rdOb73PzqSnyuHpiO1xKliSiv8VbTd6e6e2F/8Yj1tXwmcZrsOtLlFhGttGposZwPy1alldzF3K3mUfsNO5A6edzuzy/nGLmLtfjKk9moNQAAAAAAAAAAAAAAAAAAAAAAZvUENdjk0H4mBF8AAAAASUVORK5CYII=;" vertex="1" parent="1">
          <mxGeometry x="-19" y="1760" width="865" height="517" as="geometry" />
        </mxCell>
        <mxCell id="LEEeaACFnw4oo15WlWu0-53" style="edgeStyle=orthogonalEdgeStyle;rounded=0;orthogonalLoop=1;jettySize=auto;html=1;exitX=0.5;exitY=1;exitDx=0;exitDy=0;" edge="1" parent="1" source="LEEeaACFnw4oo15WlWu0-34" target="LEEeaACFnw4oo15WlWu0-49">
          <mxGeometry relative="1" as="geometry" />
        </mxCell>
        <mxCell id="LEEeaACFnw4oo15WlWu0-54" style="edgeStyle=orthogonalEdgeStyle;rounded=0;orthogonalLoop=1;jettySize=auto;html=1;exitX=0.5;exitY=1;exitDx=0;exitDy=0;entryX=0.5;entryY=0;entryDx=0;entryDy=0;" edge="1" parent="1" source="LEEeaACFnw4oo15WlWu0-34" target="LEEeaACFnw4oo15WlWu0-48">
          <mxGeometry relative="1" as="geometry" />
        </mxCell>
        <mxCell id="LEEeaACFnw4oo15WlWu0-55" style="edgeStyle=orthogonalEdgeStyle;rounded=0;orthogonalLoop=1;jettySize=auto;html=1;exitX=0.5;exitY=1;exitDx=0;exitDy=0;" edge="1" parent="1" source="LEEeaACFnw4oo15WlWu0-34" target="LEEeaACFnw4oo15WlWu0-50">
          <mxGeometry relative="1" as="geometry" />
        </mxCell>
        <mxCell id="LEEeaACFnw4oo15WlWu0-34" value="Переменные&lt;div&gt;(label directive value)&lt;/div&gt;" style="whiteSpace=wrap;html=1;" vertex="1" parent="1">
          <mxGeometry x="1181" y="40" width="120" height="60" as="geometry" />
        </mxCell>
        <mxCell id="LEEeaACFnw4oo15WlWu0-89" style="edgeStyle=orthogonalEdgeStyle;rounded=0;orthogonalLoop=1;jettySize=auto;html=1;exitX=0;exitY=0.5;exitDx=0;exitDy=0;entryX=0;entryY=0.5;entryDx=0;entryDy=0;" edge="1" parent="1" source="LEEeaACFnw4oo15WlWu0-48" target="LEEeaACFnw4oo15WlWu0-79">
          <mxGeometry relative="1" as="geometry" />
        </mxCell>
        <mxCell id="LEEeaACFnw4oo15WlWu0-90" style="edgeStyle=orthogonalEdgeStyle;rounded=0;orthogonalLoop=1;jettySize=auto;html=1;exitX=0;exitY=0.5;exitDx=0;exitDy=0;entryX=0;entryY=0.5;entryDx=0;entryDy=0;" edge="1" parent="1" source="LEEeaACFnw4oo15WlWu0-48" target="LEEeaACFnw4oo15WlWu0-80">
          <mxGeometry relative="1" as="geometry" />
        </mxCell>
        <mxCell id="LEEeaACFnw4oo15WlWu0-91" style="edgeStyle=orthogonalEdgeStyle;rounded=0;orthogonalLoop=1;jettySize=auto;html=1;exitX=0;exitY=0.5;exitDx=0;exitDy=0;entryX=0;entryY=0.5;entryDx=0;entryDy=0;" edge="1" parent="1" source="LEEeaACFnw4oo15WlWu0-48" target="LEEeaACFnw4oo15WlWu0-81">
          <mxGeometry relative="1" as="geometry" />
        </mxCell>
        <mxCell id="LEEeaACFnw4oo15WlWu0-48" value="Числа с плавающей точкой" style="whiteSpace=wrap;html=1;" vertex="1" parent="1">
          <mxGeometry x="1181" y="140" width="120" height="60" as="geometry" />
        </mxCell>
        <mxCell id="LEEeaACFnw4oo15WlWu0-56" style="edgeStyle=orthogonalEdgeStyle;rounded=0;orthogonalLoop=1;jettySize=auto;html=1;exitX=0.5;exitY=1;exitDx=0;exitDy=0;" edge="1" parent="1" source="LEEeaACFnw4oo15WlWu0-49" target="LEEeaACFnw4oo15WlWu0-51">
          <mxGeometry relative="1" as="geometry" />
        </mxCell>
        <mxCell id="LEEeaACFnw4oo15WlWu0-57" style="edgeStyle=orthogonalEdgeStyle;rounded=0;orthogonalLoop=1;jettySize=auto;html=1;exitX=0.5;exitY=1;exitDx=0;exitDy=0;" edge="1" parent="1" source="LEEeaACFnw4oo15WlWu0-49" target="LEEeaACFnw4oo15WlWu0-52">
          <mxGeometry relative="1" as="geometry" />
        </mxCell>
        <mxCell id="LEEeaACFnw4oo15WlWu0-49" value="Целые числа" style="whiteSpace=wrap;html=1;" vertex="1" parent="1">
          <mxGeometry x="920" y="140" width="120" height="60" as="geometry" />
        </mxCell>
        <mxCell id="LEEeaACFnw4oo15WlWu0-92" style="edgeStyle=orthogonalEdgeStyle;rounded=0;orthogonalLoop=1;jettySize=auto;html=1;exitX=0;exitY=0.5;exitDx=0;exitDy=0;entryX=0;entryY=0.5;entryDx=0;entryDy=0;" edge="1" parent="1" source="LEEeaACFnw4oo15WlWu0-50" target="LEEeaACFnw4oo15WlWu0-85">
          <mxGeometry relative="1" as="geometry" />
        </mxCell>
        <mxCell id="LEEeaACFnw4oo15WlWu0-93" style="edgeStyle=orthogonalEdgeStyle;rounded=0;orthogonalLoop=1;jettySize=auto;html=1;exitX=0;exitY=0.5;exitDx=0;exitDy=0;entryX=0;entryY=0.5;entryDx=0;entryDy=0;" edge="1" parent="1" source="LEEeaACFnw4oo15WlWu0-50" target="LEEeaACFnw4oo15WlWu0-86">
          <mxGeometry relative="1" as="geometry" />
        </mxCell>
        <mxCell id="LEEeaACFnw4oo15WlWu0-94" style="edgeStyle=orthogonalEdgeStyle;rounded=0;orthogonalLoop=1;jettySize=auto;html=1;exitX=0;exitY=0.5;exitDx=0;exitDy=0;entryX=0;entryY=0.5;entryDx=0;entryDy=0;" edge="1" parent="1" source="LEEeaACFnw4oo15WlWu0-50" target="LEEeaACFnw4oo15WlWu0-87">
          <mxGeometry relative="1" as="geometry" />
        </mxCell>
        <mxCell id="LEEeaACFnw4oo15WlWu0-50" value="Вектор" style="whiteSpace=wrap;html=1;" vertex="1" parent="1">
          <mxGeometry x="1420" y="140" width="120" height="60" as="geometry" />
        </mxCell>
        <mxCell id="LEEeaACFnw4oo15WlWu0-61" style="edgeStyle=orthogonalEdgeStyle;rounded=0;orthogonalLoop=1;jettySize=auto;html=1;exitX=0;exitY=0.5;exitDx=0;exitDy=0;entryX=0;entryY=0.5;entryDx=0;entryDy=0;" edge="1" parent="1" source="LEEeaACFnw4oo15WlWu0-51" target="LEEeaACFnw4oo15WlWu0-58">
          <mxGeometry relative="1" as="geometry" />
        </mxCell>
        <mxCell id="LEEeaACFnw4oo15WlWu0-63" style="edgeStyle=orthogonalEdgeStyle;rounded=0;orthogonalLoop=1;jettySize=auto;html=1;exitX=0;exitY=0.5;exitDx=0;exitDy=0;entryX=0;entryY=0.5;entryDx=0;entryDy=0;" edge="1" parent="1" source="LEEeaACFnw4oo15WlWu0-51" target="LEEeaACFnw4oo15WlWu0-62">
          <mxGeometry relative="1" as="geometry" />
        </mxCell>
        <mxCell id="LEEeaACFnw4oo15WlWu0-69" style="edgeStyle=orthogonalEdgeStyle;rounded=0;orthogonalLoop=1;jettySize=auto;html=1;exitX=0;exitY=0.5;exitDx=0;exitDy=0;entryX=0;entryY=0.5;entryDx=0;entryDy=0;" edge="1" parent="1" source="LEEeaACFnw4oo15WlWu0-51" target="LEEeaACFnw4oo15WlWu0-67">
          <mxGeometry relative="1" as="geometry" />
        </mxCell>
        <mxCell id="LEEeaACFnw4oo15WlWu0-72" style="edgeStyle=orthogonalEdgeStyle;rounded=0;orthogonalLoop=1;jettySize=auto;html=1;exitX=0;exitY=0.5;exitDx=0;exitDy=0;entryX=0;entryY=0.5;entryDx=0;entryDy=0;" edge="1" parent="1" source="LEEeaACFnw4oo15WlWu0-51" target="LEEeaACFnw4oo15WlWu0-71">
          <mxGeometry relative="1" as="geometry" />
        </mxCell>
        <mxCell id="LEEeaACFnw4oo15WlWu0-76" style="edgeStyle=orthogonalEdgeStyle;rounded=0;orthogonalLoop=1;jettySize=auto;html=1;exitX=0;exitY=0.5;exitDx=0;exitDy=0;entryX=0;entryY=0.5;entryDx=0;entryDy=0;" edge="1" parent="1" source="LEEeaACFnw4oo15WlWu0-51" target="LEEeaACFnw4oo15WlWu0-75">
          <mxGeometry relative="1" as="geometry" />
        </mxCell>
        <mxCell id="LEEeaACFnw4oo15WlWu0-78" style="edgeStyle=orthogonalEdgeStyle;rounded=0;orthogonalLoop=1;jettySize=auto;html=1;exitX=0;exitY=0.5;exitDx=0;exitDy=0;entryX=0;entryY=0.5;entryDx=0;entryDy=0;" edge="1" parent="1" source="LEEeaACFnw4oo15WlWu0-51" target="LEEeaACFnw4oo15WlWu0-77">
          <mxGeometry relative="1" as="geometry" />
        </mxCell>
        <mxCell id="LEEeaACFnw4oo15WlWu0-51" value="Беззнаковые" style="whiteSpace=wrap;html=1;" vertex="1" parent="1">
          <mxGeometry x="820" y="240" width="120" height="60" as="geometry" />
        </mxCell>
        <mxCell id="LEEeaACFnw4oo15WlWu0-64" style="edgeStyle=orthogonalEdgeStyle;rounded=0;orthogonalLoop=1;jettySize=auto;html=1;exitX=0;exitY=0.5;exitDx=0;exitDy=0;entryX=0;entryY=0.5;entryDx=0;entryDy=0;" edge="1" parent="1" source="LEEeaACFnw4oo15WlWu0-52" target="LEEeaACFnw4oo15WlWu0-60">
          <mxGeometry relative="1" as="geometry" />
        </mxCell>
        <mxCell id="LEEeaACFnw4oo15WlWu0-66" style="edgeStyle=orthogonalEdgeStyle;rounded=0;orthogonalLoop=1;jettySize=auto;html=1;exitX=0;exitY=0.5;exitDx=0;exitDy=0;entryX=0;entryY=0.5;entryDx=0;entryDy=0;" edge="1" parent="1" source="LEEeaACFnw4oo15WlWu0-52" target="LEEeaACFnw4oo15WlWu0-65">
          <mxGeometry relative="1" as="geometry" />
        </mxCell>
        <mxCell id="LEEeaACFnw4oo15WlWu0-70" style="edgeStyle=orthogonalEdgeStyle;rounded=0;orthogonalLoop=1;jettySize=auto;html=1;exitX=0;exitY=0.5;exitDx=0;exitDy=0;entryX=0;entryY=0.5;entryDx=0;entryDy=0;" edge="1" parent="1" source="LEEeaACFnw4oo15WlWu0-52" target="LEEeaACFnw4oo15WlWu0-68">
          <mxGeometry relative="1" as="geometry" />
        </mxCell>
        <mxCell id="LEEeaACFnw4oo15WlWu0-74" style="edgeStyle=orthogonalEdgeStyle;rounded=0;orthogonalLoop=1;jettySize=auto;html=1;exitX=0;exitY=0.5;exitDx=0;exitDy=0;entryX=0;entryY=0.5;entryDx=0;entryDy=0;" edge="1" parent="1" source="LEEeaACFnw4oo15WlWu0-52" target="LEEeaACFnw4oo15WlWu0-73">
          <mxGeometry relative="1" as="geometry" />
        </mxCell>
        <mxCell id="LEEeaACFnw4oo15WlWu0-52" value="Знаковые" style="whiteSpace=wrap;html=1;" vertex="1" parent="1">
          <mxGeometry x="1020" y="240" width="120" height="60" as="geometry" />
        </mxCell>
        <mxCell id="LEEeaACFnw4oo15WlWu0-58" value="byte (db) - 8 bit" style="whiteSpace=wrap;html=1;" vertex="1" parent="1">
          <mxGeometry x="820" y="340" width="120" height="60" as="geometry" />
        </mxCell>
        <mxCell id="LEEeaACFnw4oo15WlWu0-60" value="sbyte - 8 bit" style="whiteSpace=wrap;html=1;" vertex="1" parent="1">
          <mxGeometry x="1020" y="340" width="120" height="60" as="geometry" />
        </mxCell>
        <mxCell id="LEEeaACFnw4oo15WlWu0-62" value="word (dw) - 16 bit" style="whiteSpace=wrap;html=1;" vertex="1" parent="1">
          <mxGeometry x="820" y="440" width="120" height="60" as="geometry" />
        </mxCell>
        <mxCell id="LEEeaACFnw4oo15WlWu0-65" value="sword - 16 bit" style="whiteSpace=wrap;html=1;" vertex="1" parent="1">
          <mxGeometry x="1020" y="440" width="120" height="60" as="geometry" />
        </mxCell>
        <mxCell id="LEEeaACFnw4oo15WlWu0-67" value="sword (dd) - 32 bit" style="whiteSpace=wrap;html=1;" vertex="1" parent="1">
          <mxGeometry x="820" y="540" width="120" height="60" as="geometry" />
        </mxCell>
        <mxCell id="LEEeaACFnw4oo15WlWu0-68" value="sword - 32 bit" style="whiteSpace=wrap;html=1;" vertex="1" parent="1">
          <mxGeometry x="1020" y="540" width="120" height="60" as="geometry" />
        </mxCell>
        <mxCell id="LEEeaACFnw4oo15WlWu0-71" value="qword (dq) - 64 bit" style="whiteSpace=wrap;html=1;" vertex="1" parent="1">
          <mxGeometry x="820" y="640" width="120" height="60" as="geometry" />
        </mxCell>
        <mxCell id="LEEeaACFnw4oo15WlWu0-73" value="sword - 64 bit" style="whiteSpace=wrap;html=1;" vertex="1" parent="1">
          <mxGeometry x="1020" y="640" width="120" height="60" as="geometry" />
        </mxCell>
        <mxCell id="LEEeaACFnw4oo15WlWu0-75" value="tbyte (dt) - 80 bit" style="whiteSpace=wrap;html=1;" vertex="1" parent="1">
          <mxGeometry x="820" y="740" width="120" height="60" as="geometry" />
        </mxCell>
        <mxCell id="LEEeaACFnw4oo15WlWu0-77" value="oword - 128 bit" style="whiteSpace=wrap;html=1;" vertex="1" parent="1">
          <mxGeometry x="820" y="840" width="120" height="60" as="geometry" />
        </mxCell>
        <mxCell id="LEEeaACFnw4oo15WlWu0-79" value="real4 - 32 bit" style="whiteSpace=wrap;html=1;" vertex="1" parent="1">
          <mxGeometry x="1181" y="240" width="120" height="60" as="geometry" />
        </mxCell>
        <mxCell id="LEEeaACFnw4oo15WlWu0-80" value="real8 - 64 bit" style="whiteSpace=wrap;html=1;" vertex="1" parent="1">
          <mxGeometry x="1181" y="340" width="120" height="60" as="geometry" />
        </mxCell>
        <mxCell id="LEEeaACFnw4oo15WlWu0-81" value="real10 - 80 bit" style="whiteSpace=wrap;html=1;" vertex="1" parent="1">
          <mxGeometry x="1181" y="440" width="120" height="60" as="geometry" />
        </mxCell>
        <mxCell id="LEEeaACFnw4oo15WlWu0-85" value="xmmword - 128 byte&lt;div&gt;XMM&lt;/div&gt;" style="whiteSpace=wrap;html=1;" vertex="1" parent="1">
          <mxGeometry x="1420" y="240" width="120" height="60" as="geometry" />
        </mxCell>
        <mxCell id="LEEeaACFnw4oo15WlWu0-86" value="ymmword - 256 byte&lt;div&gt;YMM&lt;/div&gt;" style="whiteSpace=wrap;html=1;" vertex="1" parent="1">
          <mxGeometry x="1420" y="340" width="120" height="60" as="geometry" />
        </mxCell>
        <mxCell id="LEEeaACFnw4oo15WlWu0-87" value="zmmword - 512 byte&lt;div&gt;ZMM&lt;/div&gt;" style="whiteSpace=wrap;html=1;" vertex="1" parent="1">
          <mxGeometry x="1420" y="440" width="120" height="60" as="geometry" />
        </mxCell>
      </root>
    </mxGraphModel>
  </diagram>
</mxfile>
